<svg width="60" height="61" viewBox="0 0 60 61" fill="none" xmlns="http://www.w3.org/2000/svg">
<path opacity="0.2" d="M54.2862 20.8673C53.7504 19.7386 53.3916 17.5559 51.6619 18.0323L39.507 19.2747L39.4038 15.032L39.4027 15.0328C39.3797 12.977 38.4782 11.3391 37.9673 9.42176C37.5801 8.00742 36.9601 7.1638 36.2805 7.47317L36.2804 7.46291C36.2786 7.46388 36.2766 7.46534 36.2746 7.4668L36.2743 7.46732C36.2477 7.48686 36.2201 7.50463 36.1904 7.52062C36.1883 7.52208 36.1866 7.52304 36.1845 7.52451L36.1847 7.53477C35.511 8.08552 34.9499 9.67923 34.6419 11.5361C34.2912 13.8083 33.4537 16.6165 33.5185 18.7729L33.5175 18.7736L33.6207 23.0163L21.7762 37.0259C20.2519 38.4623 19.8253 41.1164 19.3672 43.0594L20.3985 42.181L20.9211 41.7356L26.807 36.7198L27.2308 36.4504L33.8448 32.2474L33.9283 35.6833L33.9248 35.6853C33.9276 35.7033 33.9305 35.7412 33.9303 35.7614L33.9333 35.7593L35.6514 50.7556L35.3457 50.9498L31.6314 55.3122L31.6687 56.8539L36.0434 54.0739C36.2169 54.9163 36.7019 55.3069 37.2796 55.2483C38.0287 54.7524 38.4906 53.444 38.6415 52.4225L43.0162 49.6426L42.9789 48.1009L39.1687 48.5201L38.863 48.7143L39.8117 32.0231L39.8148 32.0208C39.8137 32.0018 39.8141 31.9613 39.8161 31.94L39.8126 31.9419L39.729 28.506L46.343 24.303L46.7668 24.0336L52.7139 21.529L53.2416 21.3068L54.2862 20.8673Z" fill="#ACBCCF"/>
<path d="M12.5876 33.172L4.75062 40.0233L5.47084 40.4102L13.3078 33.5588L21.1627 28.3845L20.4428 27.9972L12.5876 33.172Z" fill="#272727" fill-opacity="0.8"/>
<path d="M20.2239 18.1449L20.9929 18.5579L21.2802 28.9099L20.5114 28.4964L20.2239 18.1449Z" fill="#272727" fill-opacity="0.8"/>
<path d="M20.0058 18.1631L19.9986 28.1879L12.1833 33.4641L4.367 40.4215L5.1256 37.423C5.44362 36.1728 6.1316 34.8978 7.00047 33.9492L20.0058 18.1631Z" fill="#FF9B30"/>
<path d="M6.15082 36.2371C6.01345 36.3772 5.90793 36.5725 5.86516 36.7651L5.17658 39.8532L5.75149 39.3695L6.28154 36.9932C6.32633 36.7919 6.43669 36.5876 6.57983 36.4414L12.0912 30.8044L12.1931 33.9514L12.227 33.923L12.6942 33.6315L12.5864 30.2983L20.2632 22.446L20.2432 21.8234L6.53909 35.8407L6.15082 36.2371Z" fill="#272727" fill-opacity="0.8"/>
<path d="M23.4395 1.79468C22.0398 0.988842 21.1773 2.93439 20.8395 4.00921C20.5337 5.11971 20.2665 6.19759 19.8623 7.27223L19.8741 7.23818C19.4557 8.46277 19.2099 9.79027 19.2232 11.1025C19.2231 11.0992 19.2234 11.0962 19.2237 11.0931C19.257 23.0842 20.5665 34.9188 22.6138 46.72C22.7525 47.3255 23.0693 47.9351 23.5994 48.3281C23.5962 48.3258 23.5927 48.3227 23.5885 48.3198C23.6743 48.3841 23.7586 48.4368 23.8539 48.4857L23.8464 48.4817C24.5178 48.8829 25.2676 48.3961 25.647 47.8001C25.9284 47.3938 26.1034 46.8334 26.1405 46.3018C26.8366 39.306 27.2892 32.2827 27.3704 25.2527C27.4018 22.5479 27.3785 19.8428 27.2937 17.1394C27.1744 13.3258 27.0791 9.53463 25.8543 5.88097C25.4127 4.56312 24.6951 2.55691 23.4395 1.79468Z" fill="#FF9B30"/>
<path d="M23.4395 1.79468C22.0398 0.988842 21.1773 2.93439 20.8395 4.00921C20.5337 5.11971 20.2665 6.19759 19.8623 7.27223L19.8741 7.23818C19.4557 8.46277 19.2099 9.79027 19.2232 11.1025C19.2231 11.0992 19.2234 11.0962 19.2237 11.0931C19.257 23.0842 20.5665 34.9188 22.6138 46.72C22.7525 47.3255 23.0693 47.9351 23.5994 48.3281C23.5962 48.3258 23.5927 48.3227 23.5885 48.3198C23.6743 48.3841 23.7586 48.4368 23.8539 48.4857L23.8464 48.4817C24.5178 48.8829 25.2676 48.3961 25.647 47.8001C25.9284 47.3938 26.1034 46.8334 26.1405 46.3018C26.8366 39.306 27.2892 32.2827 27.3704 25.2527C27.4018 22.5479 27.3785 19.8428 27.2937 17.1394C27.1744 13.3258 27.0791 9.53463 25.8543 5.88097C25.4127 4.56312 24.6951 2.55691 23.4395 1.79468Z" fill="url(#paint0_linear_2016_443)"/>
<path d="M23.2239 45.1449L23.8314 45.4724L23.576 48.7332L22.968 48.4055L23.2239 45.1449Z" fill="#272727" fill-opacity="0.8"/>
<path d="M22.2655 48.2344L22.8696 48.5592L18.9453 50.9965L18.3417 50.672L22.2655 48.2344Z" fill="#272727" fill-opacity="0.8"/>
<path d="M22.6778 44.9208L22.6899 47.7699L18.452 50.6001L18.4463 49.35L21.4596 45.7339L22.6778 44.9208Z" fill="#FF9B30"/>
<path d="M24.6943 28.4963C24.7201 28.823 24.4495 28.9324 24.0901 28.7406L23.7443 28.5561C23.385 28.3644 23.0728 27.944 23.0471 27.6173C23.0214 27.2906 23.292 27.1812 23.6513 27.373L23.9971 27.5575C24.3569 27.7495 24.669 28.1698 24.6943 28.4963Z" fill="white"/>
<path d="M24.0443 26.5827L23.5844 26.3373C23.2627 26.1656 23.0262 26.2937 23.0573 26.6227C23.0883 26.9518 23.3755 27.3593 23.6972 27.531L24.157 27.7763C24.4787 27.948 24.7152 27.8199 24.6842 27.4909C24.6531 27.1619 24.366 26.7544 24.0443 26.5827ZM23.6007 26.5116L24.0605 26.757C24.2884 26.8786 24.4914 27.1669 24.5137 27.4C24.5356 27.6328 24.3683 27.7234 24.1404 27.6018L23.6806 27.3564C23.4527 27.2348 23.2496 26.9465 23.2273 26.7135C23.2054 26.4806 23.3728 26.39 23.6007 26.5116Z" fill="#272727" fill-opacity="0.8"/>
<path d="M24.6943 25.4963C24.7201 25.823 24.4495 25.9324 24.0901 25.7406L23.7443 25.5561C23.385 25.3644 23.0729 24.944 23.0471 24.6173C23.0214 24.2906 23.292 24.1812 23.6513 24.373L23.9971 24.5575C24.3566 24.7489 24.6686 25.1696 24.6943 25.4963Z" fill="white"/>
<path d="M24.0443 24.5827L23.5844 24.3373C23.2627 24.1656 23.0262 24.2937 23.0573 24.6227C23.0883 24.9518 23.3755 25.3593 23.6972 25.531L24.157 25.7763C24.4787 25.948 24.7152 25.8199 24.6842 25.4909C24.6531 25.1618 24.366 24.7544 24.0443 24.5827ZM23.6008 24.5113L24.0607 24.7566C24.2886 24.8782 24.4916 25.1666 24.5139 25.3996C24.5358 25.6324 24.3685 25.7231 24.1406 25.6015L23.6808 25.3561C23.4529 25.2345 23.2498 24.9462 23.2275 24.7131C23.206 24.4805 23.3733 24.3898 23.6008 24.5113Z" fill="#272727" fill-opacity="0.8"/>
<path d="M24.6943 22.4963C24.7201 22.823 24.4495 22.9324 24.0901 22.7406L23.7443 22.5561C23.385 22.3644 23.0728 21.944 23.0471 21.6173C23.0214 21.2906 23.292 21.1812 23.6513 21.373L23.9971 21.5575C24.3564 21.7493 24.6686 22.1696 24.6943 22.4963Z" fill="white"/>
<path d="M24.0443 21.5827L23.5844 21.3373C23.2627 21.1656 23.0262 21.2937 23.0573 21.6227C23.0883 21.9518 23.3755 22.3593 23.6972 22.531L24.157 22.7763C24.4787 22.948 24.7152 22.8199 24.6842 22.4909C24.6527 22.1616 24.366 21.7544 24.0443 21.5827ZM23.6007 21.5116L24.0605 21.757C24.2884 21.8786 24.4914 22.1669 24.5133 22.3997C24.5352 22.6326 24.3679 22.7232 24.14 22.6016L23.6802 22.3562C23.4523 22.2346 23.2492 21.9463 23.2273 21.7135C23.2054 21.4806 23.3728 21.39 23.6007 21.5116Z" fill="#272727" fill-opacity="0.8"/>
<path d="M24.6943 19.4963C24.7201 19.823 24.4495 19.9324 24.0901 19.7406L23.7443 19.5561C23.385 19.3644 23.0728 18.944 23.0471 18.6173C23.0214 18.2906 23.292 18.1812 23.6513 18.373L23.9971 18.5575C24.3569 18.7495 24.6686 19.1696 24.6943 19.4963Z" fill="white"/>
<path d="M24.0443 18.5827L23.5844 18.3373C23.2627 18.1656 23.0262 18.2937 23.0573 18.6227C23.0883 18.9518 23.3755 19.3593 23.6972 19.5309L24.157 19.7763C24.4787 19.948 24.7152 19.8199 24.6842 19.4909C24.6527 19.1616 24.366 18.7544 24.0443 18.5827ZM23.6007 18.5116L24.0605 18.757C24.2884 18.8786 24.4914 19.1669 24.5133 19.3997C24.5352 19.6326 24.3679 19.7232 24.1404 19.6018L23.6806 19.3564C23.4527 19.2348 23.2496 18.9465 23.2277 18.7137C23.2054 18.4806 23.3728 18.39 23.6007 18.5116Z" fill="#272727" fill-opacity="0.8"/>
<path d="M24.6943 17.4963C24.7201 17.823 24.4495 17.9324 24.0901 17.7406L23.7443 17.5561C23.385 17.3644 23.0728 16.944 23.0471 16.6173C23.0214 16.2906 23.292 16.1812 23.6513 16.373L23.9971 16.5575C24.3569 16.7495 24.669 17.1698 24.6943 17.4963Z" fill="white"/>
<path d="M24.0443 16.5827L23.5844 16.3373C23.2627 16.1656 23.0262 16.2937 23.0573 16.6227C23.0883 16.9518 23.3755 17.3593 23.6972 17.5309L24.157 17.7763C24.4787 17.948 24.7152 17.8199 24.6842 17.4909C24.6531 17.1619 24.366 16.7544 24.0443 16.5827ZM23.6008 16.5113L24.0607 16.7566C24.2886 16.8782 24.4916 17.1666 24.5135 17.3994C24.5354 17.6322 24.3681 17.7229 24.1402 17.6013L23.6804 17.3559C23.4524 17.2343 23.2494 16.946 23.2275 16.7131C23.2056 16.4803 23.3729 16.3896 23.6008 16.5113Z" fill="#272727" fill-opacity="0.8"/>
<path d="M24.6943 14.4963C24.7201 14.823 24.4495 14.9324 24.0901 14.7406L23.7443 14.5561C23.385 14.3644 23.0728 13.944 23.0471 13.6173C23.0214 13.2906 23.292 13.1812 23.6513 13.373L23.9971 13.5575C24.3564 13.7493 24.6686 14.1696 24.6943 14.4963Z" fill="white"/>
<path d="M24.0443 13.5827L23.5844 13.3373C23.2627 13.1656 23.0262 13.2937 23.0573 13.6227C23.0883 13.9518 23.3755 14.3593 23.6972 14.5309L24.157 14.7763C24.4787 14.948 24.7152 14.8199 24.6842 14.4909C24.6531 14.1619 24.366 13.7544 24.0443 13.5827ZM23.6007 13.5116L24.0605 13.757C24.2884 13.8786 24.4914 14.1669 24.5133 14.3997C24.5352 14.6326 24.3679 14.7232 24.14 14.6016L23.6802 14.3562C23.4523 14.2346 23.2492 13.9463 23.2273 13.7135C23.2058 13.4808 23.3732 13.3902 23.6007 13.5116Z" fill="#272727" fill-opacity="0.8"/>
<path d="M23.3996 47.4405L22.5789 48.1068L16.7531 45.0271L17.5738 44.3608L23.3996 47.4405Z" fill="#272727" fill-opacity="0.8"/>
<path d="M17.531 44.6935L16.8199 45.1963L16.8574 43.8316L17.5689 43.329L17.531 44.6935Z" fill="#FF9B30"/>
<path d="M17.3138 42.8503L23.5357 43.9795L23.7557 46.2675L23.8779 47.5422L17.436 44.1249L17.3138 42.8503Z" fill="url(#paint1_linear_2016_443)"/>
<path d="M20.6068 6.49596C20.5351 6.56177 20.466 6.62631 20.399 6.69064C20.2561 7.08586 20.104 7.47422 19.9377 7.85899C20.6532 7.07325 21.7596 6.46321 23.4242 6.81348C24.6399 7.06908 22.3289 4.91459 20.6068 6.49596Z" fill="#272727" fill-opacity="0.8"/>
<path d="M22.0051 1.55492C22.0152 1.56034 22.0249 1.5655 22.0353 1.57168C23.2563 2.31545 23.9377 4.30235 24.356 5.60841C25.5157 9.22729 25.5676 12.9953 25.6427 16.7852C25.6958 19.4716 25.6895 22.1609 25.6286 24.8499C25.4714 31.8399 24.952 38.8268 24.1932 45.7891C24.151 46.3179 23.9734 46.8769 23.6934 47.284C23.5084 47.5758 23.2369 47.8421 22.9318 47.993C22.9548 48.0059 22.9773 48.0186 23.0013 48.0307L22.994 48.0269C23.6472 48.4183 24.3869 47.9262 24.7651 47.3295C25.0451 46.9225 25.2228 46.3635 25.2649 45.8346C26.0232 38.8721 26.5431 31.8854 26.6998 24.8952C26.7602 22.2059 26.767 19.5169 26.7134 16.8302C26.6384 13.0403 26.5865 9.27233 25.4268 5.65345C25.0084 4.34739 24.327 2.3605 23.106 1.61672C22.6932 1.37851 22.326 1.39189 22.0051 1.55492Z" fill="#272727" fill-opacity="0.8"/>
<path d="M27.2239 43.1449L27.7045 43.4039L27.6353 44.4979L27.1548 44.2396L27.2239 43.1449Z" fill="#272727" fill-opacity="0.8"/>
<path d="M28.266 44.2347L28.8698 44.5587L24.9453 46.9965L24.3417 46.672L28.266 44.2347Z" fill="#272727" fill-opacity="0.8"/>
<path d="M24.9553 43.8202L27.4526 43.3342L27.4073 44.4255L23.8219 47.0641L23.9252 44.5786L24.9553 43.8202Z" fill="#FF9B30"/>
<path d="M34.1486 19.308L26.163 24.3765L26.9097 24.7776L34.8953 19.709L42.9275 16.3256L42.1808 15.9246L34.1486 19.308Z" fill="#272727" fill-opacity="0.8"/>
<path d="M40.2799 13.1763C40.2893 13.182 40.2986 13.1876 40.3079 13.1933C40.3199 13.2004 40.3311 13.2078 40.3428 13.2155C40.3518 13.2217 40.3612 13.2274 40.3702 13.2336C40.3819 13.2413 40.3928 13.2492 40.4042 13.2574C40.4132 13.2637 40.422 13.2705 40.4305 13.2764C40.4419 13.2846 40.453 13.2934 40.4636 13.3019C40.4724 13.3087 40.4806 13.3152 40.4893 13.322C40.5001 13.3313 40.5115 13.3409 40.5229 13.3505C40.5308 13.3575 40.5384 13.3638 40.5458 13.3705C40.5574 13.381 40.5687 13.3919 40.5803 13.4024C40.5872 13.4089 40.594 13.4153 40.6009 13.4218C40.614 13.4345 40.6269 13.4477 40.6397 13.461C40.6447 13.4658 40.6497 13.4705 40.6539 13.4756C40.6715 13.4941 40.6882 13.513 40.7052 13.5326C40.7099 13.538 40.7143 13.5439 40.719 13.5492C40.7313 13.5635 40.7435 13.5779 40.7552 13.5933C40.7615 13.6009 40.7677 13.6099 40.7739 13.6175C40.7841 13.6306 40.7937 13.6435 40.8038 13.6567C40.8106 13.666 40.8168 13.6749 40.823 13.6839C40.832 13.6965 40.8408 13.7097 40.8496 13.7229C40.856 13.7327 40.8625 13.7425 40.8686 13.7528C40.8768 13.7657 40.8851 13.7786 40.8933 13.7915C40.9016 13.8043 40.909 13.8175 40.9169 13.8309C40.9238 13.8424 40.9305 13.8544 40.9374 13.8659C40.9448 13.8791 40.9522 13.8936 40.9593 13.9073C40.9659 13.9193 40.9725 13.9313 40.9789 13.9439C40.9857 13.9582 40.993 13.9727 40.9999 13.987C41.0062 13.9996 41.012 14.0118 41.0181 14.025C41.0246 14.0398 41.0316 14.0549 41.0379 14.0702C41.0444 14.085 41.0512 14.0992 41.0575 14.1146L41.9838 16.3482L42.8113 16.7926L41.8849 14.559C41.8834 14.5554 41.8814 14.5515 41.8802 14.5473C41.8752 14.5361 41.8704 14.5258 41.8654 14.5146C41.8588 14.4998 41.852 14.4842 41.8455 14.4694C41.8395 14.4562 41.8334 14.4445 41.8273 14.4314C41.8205 14.4171 41.8132 14.4026 41.8063 14.3883C41.8 14.3758 41.7934 14.3637 41.7867 14.3517C41.7796 14.338 41.772 14.324 41.7649 14.3103C41.7582 14.2983 41.7513 14.2868 41.7444 14.2754C41.737 14.2622 41.729 14.2488 41.7208 14.2359C41.719 14.2328 41.7177 14.23 41.7157 14.2275C41.7095 14.2171 41.7025 14.207 41.6961 14.1972C41.6896 14.1874 41.6835 14.1771 41.6765 14.167C41.6677 14.1538 41.6587 14.1412 41.6499 14.128C41.6432 14.1188 41.6372 14.1093 41.6302 14.1006C41.6209 14.0871 41.6105 14.0745 41.6004 14.0613C41.5944 14.0531 41.5879 14.0447 41.5816 14.0371C41.5697 14.0222 41.5579 14.0082 41.5457 13.9939C41.541 13.9885 41.536 13.9824 41.5316 13.9765L41.5308 13.9754C41.5141 13.9565 41.4973 13.9377 41.4803 13.9194C41.4756 13.9141 41.4706 13.9093 41.4656 13.9045C41.4527 13.8913 41.4399 13.878 41.4267 13.8654C41.4199 13.8589 41.413 13.8524 41.4062 13.8459C41.3949 13.8349 41.3833 13.8245 41.3717 13.814C41.3638 13.807 41.3561 13.8008 41.3482 13.7937C41.3403 13.7867 41.3318 13.7794 41.3236 13.7729C41.3207 13.7706 41.3178 13.7683 41.3143 13.7658C41.3056 13.759 41.2974 13.7525 41.2886 13.7457C41.2775 13.7369 41.2664 13.7282 41.2555 13.7202C41.2468 13.7135 41.2378 13.7072 41.2287 13.701C41.2173 13.6928 41.2064 13.6848 41.1947 13.6772C41.1857 13.6709 41.1764 13.6652 41.1673 13.659C41.1556 13.6513 41.1441 13.6445 41.1324 13.6369C41.1231 13.6312 41.1138 13.6255 41.1044 13.6198C41.0991 13.617 41.0946 13.6138 41.0892 13.611C41.0767 13.6036 41.0639 13.5967 41.051 13.5899L40.2236 13.1455C40.245 13.1555 40.2623 13.1655 40.2799 13.1763Z" fill="#272727" fill-opacity="0.8"/>
<path d="M25.3873 14.3345L38.8259 12.8C39.7217 12.5895 40.4406 12.9533 40.7848 13.7902L41.6057 15.8031L33.5744 19.2856L25.5745 24.4665L25.3873 14.3345Z" fill="#FF9B30"/>
<path d="M39.8407 14.3562C39.9774 14.3255 40.0893 14.3828 40.1424 14.5111L40.9983 16.5672L40.4313 16.793L39.7722 15.2107C39.7165 15.0767 39.5996 15.0168 39.4564 15.049L33.9499 16.2822L34.0779 19.3189L34.0448 19.3323L33.5912 19.6093L33.4558 16.3929L25.7851 18.1109L25.7599 17.5101L39.4527 14.4435L39.8407 14.3562Z" fill="#272727" fill-opacity="0.8"/>
<defs>
<linearGradient id="paint0_linear_2016_443" x1="-10.7897" y1="25.7641" x2="30.1317" y2="25.074" gradientUnits="userSpaceOnUse">
<stop offset="0.838" stop-color="#FF9B30"/>
<stop offset="1" stop-color="#ED891E"/>
</linearGradient>
<linearGradient id="paint1_linear_2016_443" x1="16.0528" y1="41.8666" x2="26.0104" y2="46.8542" gradientUnits="userSpaceOnUse">
<stop offset="0.43" stop-color="#FF9B30"/>
<stop offset="1" stop-color="#ED891E"/>
</linearGradient>
</defs>
</svg>
