<svg width="57" height="54" viewBox="0 0 57 54" fill="none" xmlns="http://www.w3.org/2000/svg">
<path opacity="0.2" d="M4.54847 38.5389C4.0955 37.3309 2.73946 35.5057 4.31668 34.5407L13.8465 26.2601L10.7896 23.1603L10.7909 23.16C9.29059 21.6784 8.72109 19.832 7.66863 18.0811C6.89956 16.7817 6.71652 15.7134 7.42633 15.4212L7.41886 15.4138C7.42083 15.4132 7.42334 15.4127 7.42586 15.4122L7.42643 15.4124C7.45973 15.4062 7.49237 15.3981 7.52523 15.387C7.52775 15.3866 7.52971 15.3859 7.53223 15.3854L7.5397 15.3928C8.42342 15.2771 9.99677 15.9891 11.5849 17.0795C13.5098 18.4335 16.1749 19.8021 17.7199 21.3869L17.7211 21.3866L20.778 24.4864L39.5069 25.5333C41.6467 25.407 43.9071 26.9758 45.6651 28.0143L44.2863 28.1662L43.5874 28.2432L35.7161 29.1089L35.217 29.2366L27.4294 31.2303L29.9051 33.7406L29.909 33.7393C29.9203 33.7543 29.9462 33.7834 29.9613 33.7977L29.9576 33.7984L39.8035 45.7753L40.1634 45.6832L46.0138 45.9895L47.1247 47.1157L41.9738 48.4345C42.4723 49.1653 42.4168 49.8093 41.9642 50.2031C41.0675 50.4148 39.7749 49.8311 38.9144 49.2174L33.7635 50.5362L32.6526 49.4099L35.6618 46.8353L36.0218 46.7431L23.0356 35.57L23.0318 35.5707C23.0185 35.5564 22.9883 35.5278 22.9712 35.5142L22.9751 35.5129L20.4995 33.0026L12.7119 34.9963L12.2128 35.124L6.15084 37.8246L5.61292 38.0642L4.54847 38.5389Z" fill="#ACBCCF"/>
<path d="M42.0899 16.3048L52.5657 14.9604L52.3248 15.8363L41.849 17.1807L32.5512 19.7811L32.7916 18.905L42.0899 16.3048Z" fill="#272727" fill-opacity="0.8"/>
<path d="M26.2241 12.1449L25.9928 12.9866L33.2906 20.3342L33.5214 19.4923L26.2241 12.1449Z" fill="#272727" fill-opacity="0.8"/>
<path d="M25.9497 11.7343L33.0736 19.1476L42.4154 16.6552L52.9517 15.4061L50.2794 13.8079C49.1639 13.143 47.766 12.7626 46.4704 12.7717L25.9497 11.7343Z" fill="#FF9B30"/>
<path d="M48.8583 13.3632C49.0545 13.3604 49.2687 13.4187 49.4377 13.5206L52.1487 15.1518L51.4019 15.2345L49.3156 13.9793C49.139 13.873 48.9149 13.8119 48.7104 13.8148L40.8275 13.9179L43.0359 16.1621L42.992 16.1671L42.4587 16.3043L40.1194 13.9274L29.1389 14.0706L28.7019 13.6267L48.3035 13.371L48.8583 13.3632Z" fill="#272727" fill-opacity="0.8"/>
<path d="M11.8562 2.47331C12.2368 0.903676 14.2904 1.63478 15.3277 2.13867C16.3691 2.69051 17.3592 3.2474 18.4429 3.70333L18.4093 3.68815C19.6146 4.23811 20.7756 4.98404 21.7436 5.90624C21.7413 5.90383 21.7388 5.90198 21.7364 5.90012C30.6446 14.2632 38.5418 23.4376 45.8972 33.1209C46.251 33.6421 46.4831 34.2944 46.4044 34.9499C46.4049 34.946 46.4049 34.9413 46.4057 34.9363C46.3935 35.0428 46.3737 35.1403 46.3434 35.243L46.3456 35.2349C46.174 35.998 45.286 36.2 44.5762 36.0591C44.0764 35.9794 43.5363 35.7159 43.1144 35.373C37.4158 31.0097 31.8674 26.4517 26.5742 21.6213C24.5376 19.763 22.539 17.8649 20.5849 15.9236C17.8279 13.1856 15.0709 10.4803 13.2077 7.05623C12.5356 5.82133 11.5441 3.90872 11.8562 2.47331Z" fill="#FF9B30"/>
<path d="M11.8562 2.47331C12.2368 0.903676 14.2904 1.63478 15.3277 2.13867C16.3691 2.69051 17.3592 3.2474 18.4429 3.70333L18.4093 3.68815C19.6146 4.23811 20.7756 4.98404 21.7436 5.90624C21.7413 5.90383 21.7388 5.90198 21.7364 5.90012C30.6446 14.2632 38.5418 23.4376 45.8972 33.1209C46.251 33.6421 46.4831 34.2944 46.4044 34.9499C46.4049 34.946 46.4049 34.9413 46.4057 34.9363C46.3935 35.0428 46.3737 35.1403 46.3434 35.243L46.3456 35.2349C46.174 35.998 45.286 36.2 44.5762 36.0591C44.0764 35.9794 43.5363 35.7159 43.1144 35.373C37.4158 31.0097 31.8674 26.4517 26.5742 21.6213C24.5376 19.763 22.539 17.8649 20.5849 15.9236C17.8279 13.1856 15.0709 10.4803 13.2077 7.05623C12.5356 5.82133 11.5441 3.90872 11.8562 2.47331Z" fill="url(#paint0_linear_2016_501)"/>
<path d="M44.2241 33.1449L44.0423 33.8106L46.5796 35.8747L46.7617 35.2084L44.2241 33.1449Z" fill="#272727" fill-opacity="0.8"/>
<path d="M45.6049 34.3747L45.4235 35.0361L49.8949 33.8754L50.0762 33.2146L45.6049 34.3747Z" fill="#272727" fill-opacity="0.8"/>
<path d="M43.7832 32.7328L45.8379 34.7065L50.8101 33.5898L49.9089 32.7235L45.2122 32.4115L43.7832 32.7328Z" fill="#FF9B30"/>
<path d="M30.1886 23.1417C30.4074 23.3857 30.6732 23.2652 30.7822 22.8727L30.887 22.4951C30.996 22.1026 30.9069 21.5867 30.6881 21.3427C30.4693 21.0987 30.2035 21.2193 30.0945 21.6117L29.9896 21.9894C29.8805 22.3823 29.9696 22.8982 30.1886 23.1417Z" fill="white"/>
<path d="M29.8509 21.4889L30.0601 20.7356C30.2064 20.2086 30.6983 20.1141 31.1564 20.5252C31.6144 20.9362 31.8681 21.6997 31.7217 22.2267L31.5125 22.98C31.3662 23.507 30.8743 23.6014 30.4163 23.1904C29.9582 22.7793 29.7046 22.0159 29.8509 21.4889ZM30.303 20.9531L30.0938 21.7063C29.9902 22.0797 30.1698 22.6198 30.4938 22.9112C30.818 23.2019 31.1661 23.1352 31.2698 22.7618L31.479 22.0086C31.5827 21.6352 31.4031 21.0951 31.079 20.8037C30.7548 20.5129 30.4067 20.5797 30.303 20.9531Z" fill="#272727" fill-opacity="0.8"/>
<path d="M28.1885 21.1417C28.4074 21.3857 28.6732 21.2652 28.7822 20.8727L28.887 20.4951C28.996 20.1026 28.9069 19.5867 28.6881 19.3427C28.4693 19.0987 28.2035 19.2193 28.0945 19.6117L27.9896 19.9894C27.8802 20.3817 27.9697 20.8977 28.1885 21.1417Z" fill="white"/>
<path d="M27.8509 19.4889L28.0601 18.7356C28.2064 18.2086 28.6983 18.1141 29.1563 18.5251C29.6144 18.9362 29.8681 19.6997 29.7217 20.2267L29.5125 20.98C29.3662 21.507 28.8743 21.6014 28.4162 21.1904C27.9582 20.7793 27.7046 20.0159 27.8509 19.4889ZM28.3023 18.9528L28.0931 19.7061C27.9894 20.0795 28.169 20.6195 28.493 20.911C28.8173 21.2017 29.1653 21.135 29.269 20.7616L29.4782 20.0083C29.5819 19.635 29.4023 19.0949 29.0783 18.8035C28.7538 18.5134 28.4058 18.5801 28.3023 18.9528Z" fill="#272727" fill-opacity="0.8"/>
<path d="M26.1886 18.1417C26.4074 18.3857 26.6732 18.2652 26.7822 17.8727L26.887 17.4951C26.996 17.1026 26.9069 16.5867 26.6881 16.3427C26.4693 16.0987 26.2035 16.2193 26.0945 16.6117L25.9896 16.9894C25.8806 17.3818 25.9697 17.8978 26.1886 18.1417Z" fill="white"/>
<path d="M25.8509 17.4889L26.0601 16.7356C26.2064 16.2086 26.6983 16.1141 27.1564 16.5252C27.6144 16.9362 27.8681 17.6997 27.7217 18.2267L27.5125 18.98C27.3662 19.507 26.8743 19.6014 26.4163 19.1904C25.9584 18.7787 25.7046 18.0159 25.8509 17.4889ZM26.303 16.9531L26.0938 17.7063C25.9902 18.0797 26.1698 18.6198 26.494 18.9105C26.8182 19.2013 27.1663 19.1345 27.27 18.7612L27.4792 18.0079C27.5828 17.6345 27.4033 17.0945 27.079 16.8037C26.7548 16.5129 26.4067 16.5797 26.303 16.9531Z" fill="#272727" fill-opacity="0.8"/>
<path d="M24.1886 16.1417C24.4074 16.3857 24.6732 16.2652 24.7822 15.8727L24.887 15.4951C24.996 15.1026 24.9069 14.5867 24.6881 14.3427C24.4693 14.0987 24.2035 14.2193 24.0945 14.6117L23.9896 14.9894C23.8805 15.3823 23.9697 15.8978 24.1886 16.1417Z" fill="white"/>
<path d="M23.8509 15.4889L24.0601 14.7356C24.2064 14.2086 24.6983 14.1141 25.1564 14.5252C25.6144 14.9362 25.8681 15.6997 25.7217 16.2267L25.5125 16.98C25.3662 17.507 24.8743 17.6014 24.4163 17.1904C23.9584 16.7787 23.7046 16.0159 23.8509 15.4889ZM24.303 14.9531L24.0938 15.7063C23.9902 16.0797 24.1698 16.6198 24.494 16.9105C24.8182 17.2013 25.1663 17.1345 25.2698 16.7618L25.479 16.0086C25.5826 15.6352 25.4031 15.0951 25.0788 14.8044C24.7548 14.5129 24.4067 14.5797 24.303 14.9531Z" fill="#272727" fill-opacity="0.8"/>
<path d="M22.1886 14.1417C22.4074 14.3857 22.6732 14.2652 22.7822 13.8727L22.887 13.4951C22.996 13.1026 22.9069 12.5867 22.6881 12.3427C22.4693 12.0987 22.2035 12.2193 22.0945 12.6117L21.9896 12.9894C21.8805 13.3823 21.9696 13.8982 22.1886 14.1417Z" fill="white"/>
<path d="M21.8509 13.4889L22.0601 12.7356C22.2064 12.2086 22.6983 12.1141 23.1564 12.5252C23.6144 12.9362 23.8681 13.6997 23.7217 14.2267L23.5125 14.98C23.3662 15.507 22.8743 15.6014 22.4163 15.1904C21.9582 14.7794 21.7046 14.0159 21.8509 13.4889ZM22.3023 12.9528L22.0931 13.7061C21.9894 14.0795 22.169 14.6196 22.4932 14.9103C22.8175 15.2011 23.1656 15.1343 23.2692 14.761L23.4784 14.0077C23.5821 13.6343 23.4025 13.0943 23.0783 12.8035C22.754 12.5127 22.406 12.5795 22.3023 12.9528Z" fill="#272727" fill-opacity="0.8"/>
<path d="M20.1886 12.1417C20.4074 12.3857 20.6732 12.2652 20.7822 11.8727L20.887 11.4951C20.996 11.1026 20.9069 10.5867 20.6881 10.3427C20.4693 10.0987 20.2035 10.2193 20.0945 10.6117L19.9896 10.9894C19.8806 11.3818 19.9697 11.8978 20.1886 12.1417Z" fill="white"/>
<path d="M19.8509 11.4889L20.0601 10.7356C20.2064 10.2086 20.6983 10.1141 21.1564 10.5252C21.6144 10.9362 21.8681 11.6997 21.7217 12.2267L21.5125 12.98C21.3662 13.507 20.8743 13.6014 20.4163 13.1904C19.9582 12.7794 19.7046 12.0159 19.8509 11.4889ZM20.303 10.9531L20.0938 11.7063C19.9902 12.0797 20.1698 12.6198 20.494 12.9105C20.8182 13.2013 21.1663 13.1345 21.27 12.7612L21.4792 12.0079C21.5828 11.6345 21.4032 11.0945 21.079 10.8037C20.7546 10.5136 20.4065 10.5803 20.303 10.9531Z" fill="#272727" fill-opacity="0.8"/>
<path d="M45.0836 35.8532L46.1479 35.662L48.1877 28.4125L47.1234 28.6036L45.0836 35.8532Z" fill="#272727" fill-opacity="0.8"/>
<path d="M47.1337 28.4353L47.9881 28.2672L46.9741 27.3531L46.1195 27.5217L47.1337 28.4353Z" fill="#FF9B30"/>
<path d="M46.0867 26.6621L42.4118 32.6713L43.8744 34.5618L44.6894 35.6146L46.9017 27.7149L46.0867 26.6621Z" fill="url(#paint1_linear_2016_501)"/>
<path d="M17.6281 3.62984C17.7251 3.62334 17.8195 3.61785 17.9123 3.61368C18.2971 3.78275 18.6832 3.94045 19.0765 4.08546C18.014 4.06164 16.8092 4.44206 15.9148 5.88898C15.2615 6.94556 15.2952 3.78625 17.6281 3.62984Z" fill="#272727" fill-opacity="0.8"/>
<path d="M12.6828 1.27228C12.6796 1.28385 12.6766 1.29486 12.6738 1.30713C12.3562 2.76207 13.3415 4.69684 14.0102 5.94627C15.8627 9.40865 18.6126 12.1396 21.3622 14.9036C23.3114 16.8628 25.3048 18.7791 27.3369 20.6539C32.6184 25.5283 38.1549 30.1264 43.8434 34.5259C44.2644 34.8718 44.8041 35.1367 45.3041 35.2157C45.6515 35.2842 46.0413 35.2691 46.3697 35.1461C46.3629 35.1727 46.3563 35.1987 46.3482 35.2256L46.3505 35.2173C46.1759 35.9911 45.2863 36.1991 44.5763 36.0589C44.0763 35.98 43.5366 35.715 43.1155 35.3691C37.4272 30.9691 31.8905 26.3715 26.6091 21.4966C24.5773 19.6212 22.5837 17.7055 20.6347 15.7458C17.885 12.9817 15.1351 10.2508 13.2827 6.78841C12.614 5.53898 11.6287 3.6042 11.9462 2.14927C12.0634 1.66684 12.3343 1.39855 12.6828 1.27228Z" fill="#272727" fill-opacity="0.8"/>
<path d="M39.2241 35.1449L39.0802 35.6715L39.9201 36.376L40.0645 35.8499L39.2241 35.1449Z" fill="#272727" fill-opacity="0.8"/>
<path d="M40.6048 36.3752L40.423 37.036L44.8949 35.8754L45.0762 35.2146L40.6048 36.3752Z" fill="#272727" fill-opacity="0.8"/>
<path d="M41.5732 33.2831L39.3229 35.3904L40.1021 36.2624L44.6569 34.869L42.8821 32.883L41.5732 33.2831Z" fill="#FF9B30"/>
<path d="M16.3837 23.8526L25.6748 21.1577L25.4296 22.0492L16.1385 24.7441L8.0153 28.708L8.26054 27.8165L16.3837 23.8526Z" fill="#272727" fill-opacity="0.8"/>
<path d="M7.20794 24.2071C7.20562 24.2178 7.2033 24.2285 7.20098 24.2392C7.19785 24.2528 7.19549 24.2659 7.19296 24.2797C7.19125 24.2905 7.18893 24.3012 7.18722 24.3121C7.18469 24.3258 7.18293 24.3392 7.181 24.3531C7.17929 24.3639 7.17818 24.375 7.17663 24.3852C7.1747 24.3992 7.17337 24.4132 7.17221 24.4268C7.17109 24.4378 7.17016 24.4482 7.16905 24.4592C7.16832 24.4735 7.16741 24.4883 7.16653 24.5032C7.16618 24.5138 7.16541 24.5236 7.16522 24.5336C7.16478 24.5492 7.16492 24.565 7.16448 24.5806C7.16445 24.59 7.16444 24.5994 7.16441 24.6089C7.16452 24.6271 7.16523 24.6456 7.16594 24.664C7.16596 24.6709 7.16595 24.6778 7.16673 24.6843C7.16806 24.7099 7.17015 24.735 7.17269 24.7608C7.17331 24.7679 7.17453 24.7752 7.17515 24.7823C7.17706 24.801 7.179 24.8198 7.18211 24.8389C7.18329 24.8487 7.18551 24.8594 7.18669 24.8691C7.18925 24.8856 7.19195 24.9014 7.19451 24.9178C7.19656 24.9291 7.19877 24.9398 7.20099 24.9504C7.20387 24.9657 7.20738 24.9812 7.21086 24.9966C7.21352 25.008 7.21618 25.0194 7.21944 25.031C7.22309 25.0459 7.22671 25.0607 7.23035 25.0756C7.234 25.0904 7.23843 25.1049 7.24268 25.1199C7.24621 25.1328 7.25034 25.1459 7.25388 25.1588C7.25829 25.1733 7.26374 25.1886 7.26875 25.2032C7.27288 25.2163 7.27701 25.2294 7.28175 25.2427C7.28736 25.2574 7.29284 25.2728 7.29845 25.2876C7.30319 25.3008 7.30807 25.3135 7.31341 25.3269C7.31963 25.3419 7.32569 25.3574 7.3325 25.3725C7.33872 25.3874 7.34432 25.4022 7.35113 25.4173L8.32963 27.6285L8.08071 28.5342L7.10225 26.323C7.10065 26.3194 7.09922 26.3152 7.09702 26.3114C7.0924 26.3001 7.0882 26.2895 7.08358 26.2782C7.07736 26.2632 7.07074 26.2475 7.06452 26.2326C7.05919 26.2192 7.05487 26.2067 7.04953 26.1932C7.04392 26.1785 7.03847 26.1631 7.03286 26.1484C7.02812 26.1351 7.024 26.122 7.01986 26.1089C7.01485 26.0943 7.01 26.0791 7.00499 26.0645C7.00086 26.0514 6.99733 26.0385 6.99379 26.0256C6.98938 26.0111 6.98512 25.9961 6.98147 25.9813C6.98048 25.9778 6.97932 25.975 6.97893 25.9717C6.97567 25.9602 6.97317 25.9481 6.97052 25.9367C6.96786 25.9253 6.9646 25.9137 6.9621 25.9017C6.95862 25.8862 6.95575 25.871 6.95226 25.8555C6.95021 25.8443 6.9474 25.8334 6.94595 25.8223C6.94262 25.8063 6.94065 25.7901 6.93809 25.7736C6.93631 25.7637 6.93469 25.7532 6.93351 25.7434C6.931 25.7245 6.92893 25.7063 6.92702 25.6875C6.92639 25.6804 6.92535 25.6726 6.92412 25.6654L6.92386 25.664C6.92177 25.6389 6.91966 25.6138 6.91817 25.5889C6.91755 25.5818 6.91752 25.5748 6.9175 25.5679C6.91679 25.5495 6.91608 25.5311 6.91597 25.5128C6.916 25.5034 6.91601 25.4939 6.91604 25.4845C6.91589 25.4687 6.91634 25.4531 6.91679 25.4375C6.91714 25.4269 6.91794 25.4171 6.91829 25.4065C6.91864 25.3959 6.91916 25.3847 6.92011 25.3743C6.92049 25.3706 6.92086 25.367 6.9214 25.3627C6.92251 25.3517 6.92344 25.3413 6.92456 25.3303C6.92588 25.3162 6.92721 25.3021 6.92898 25.2887C6.93009 25.2777 6.9318 25.2669 6.93351 25.256C6.93544 25.2421 6.9372 25.2288 6.93973 25.215C6.94145 25.2041 6.94376 25.1935 6.94548 25.1826C6.948 25.1689 6.95097 25.1559 6.95349 25.1421C6.95581 25.1314 6.95813 25.1207 6.96045 25.1101C6.96207 25.1042 6.96294 25.0988 6.96456 25.093C6.96785 25.0788 6.97172 25.0648 6.97561 25.0508L7.22454 24.1451C7.21701 24.1675 7.21225 24.187 7.20794 24.2071Z" fill="#272727" fill-opacity="0.8"/>
<path d="M19.076 13.3253L8.49777 22.7132C7.71527 23.2611 7.46848 24.0844 7.82466 24.9556L8.68623 27.0457L16.8441 23.2821L26.1955 20.7658L19.076 13.3253Z" fill="#FF9B30"/>
<path d="M9.13979 24.5134C9.02106 24.5991 8.98276 24.7289 9.03682 24.8638L9.89992 27.0293L10.4626 26.7453L9.79868 25.0785C9.74237 24.9374 9.78231 24.8017 9.90671 24.712L14.6855 21.2582L16.7643 23.5596L16.7973 23.5431L17.3163 23.3856L15.1143 20.9483L21.7714 16.1371L21.36 15.6819L9.47674 24.2704L9.13979 24.5134Z" fill="#272727" fill-opacity="0.8"/>
<defs>
<linearGradient id="paint0_linear_2016_501" x1="53.6958" y1="-5.5379" x2="25.112" y2="24.0729" gradientUnits="userSpaceOnUse">
<stop offset="0.838" stop-color="#FF9B30"/>
<stop offset="1" stop-color="#ED891E"/>
</linearGradient>
<linearGradient id="paint1_linear_2016_501" x1="46.2968" y1="24.8807" x2="42.5954" y2="36.8493" gradientUnits="userSpaceOnUse">
<stop offset="0.43" stop-color="#FF9B30"/>
<stop offset="1" stop-color="#ED891E"/>
</linearGradient>
</defs>
</svg>
