<svg width="1440" height="408" viewBox="0 0 1440 408" fill="none" xmlns="http://www.w3.org/2000/svg">
<g clip-path="url(#clip0_21_6799)">
<path opacity="0.5" d="M169.071 195.129C168.548 201.352 162.512 205.578 156.486 203.941L-153.173 119.853C-161.356 117.631 -163.234 106.874 -156.288 102.011L180.263 -133.645C187.208 -138.508 196.674 -133.064 195.963 -124.615L169.071 195.129Z" fill="#07458D"/>
<path opacity="0.5" d="M121.087 123.093C120.57 129.325 114.523 133.559 108.49 131.913L-174.046 54.8558C-182.221 52.6263 -184.092 41.8768 -177.151 37.0167L129.609 -177.779C136.55 -182.639 146.011 -177.204 145.31 -168.76L121.087 123.093Z" fill="#00367E"/>
<path opacity="0.5" d="M1280.62 149.427C1274.59 147.786 1268.55 152.016 1268.03 158.243L1235.57 546.606C1234.87 555.052 1244.33 560.492 1251.27 555.63L1659.77 269.597C1666.71 264.735 1664.84 253.982 1656.66 251.756L1280.62 149.427Z" fill="#07458D"/>
<path opacity="0.5" d="M1334.11 236.818C1328.07 235.168 1322.02 239.406 1321.51 245.644L1292.27 600.65C1291.58 609.091 1301.04 614.52 1307.98 609.662L1680.8 348.605C1687.74 343.746 1685.88 333.001 1677.71 330.767L1334.11 236.818Z" fill="#00367E"/>
</g>
<defs>
<clipPath id="clip0_21_6799">
<rect width="1440" height="418" fill="white"/>
</clipPath>
</defs>
</svg>
