<svg width="700" height="467" viewBox="0 0 700 467" fill="none" xmlns="http://www.w3.org/2000/svg">
<mask id="mask0_2016_395" style="mask-type:luminance" maskUnits="userSpaceOnUse" x="0" y="0" width="700" height="467">
<path d="M700 0H0V467H700V0Z" fill="white"/>
</mask>
<g mask="url(#mask0_2016_395)">
<path d="M266.771 77.1774L267.308 77.3465L269.024 79.2122L269.02 80.6283L270.312 82L272.367 81.4719L275.981 77.6053L276.985 74.5058L277 69.158L274.652 64.4761L271.837 64L269.58 66.4042L269.575 68.3087L268.19 68.3219L266.015 68.7574L266 74.1053L266.539 76.8732L266.771 77.1774Z" fill="url(#paint0_linear_2016_395)" fill-opacity="0.6"/>
<path d="M221.517 69.719L223.534 69.8084L223.519 74.8935L225.538 76.6644L225.526 80.8115L227.036 81.7206L239.242 85.6181L243.093 86L247.999 83.9963L248.013 79.0043L248.985 78.2386L249 72.9653L247.893 71.1973L243.214 71.9164L240.523 75.228L239.481 75.4655L237.892 73.35L237.746 70.3487L237.907 70.3217L241.952 68.9319L241.967 63.6576L241.759 61.8151L239.913 61L220.955 61.1435L220.015 62.3833L220 67.6575L220.981 69.2588L221.517 69.719Z" fill="url(#paint1_linear_2016_395)" fill-opacity="0.6"/>
<path d="M220.969 185.414L221.093 184.494L221.108 179.218L219.45 178.975L217.77 179.134L218.126 177.83L218.127 177.329L225.338 179.274L225.096 180.687L225.081 185.963L231.824 191.929L233.952 191.803L236.496 190.15L237.823 187.15L237.832 183.995L240.452 182.787L244.402 175.501L244.411 172.525L249.732 160.794L249.747 155.517L247.885 154.614L243.029 155.933L241.488 155.728L242.038 155.421L242.134 153.662L242.149 148.386L241.43 147.261L241.444 142.446L239.669 141.28L237.578 140.598L234.769 138.931L232.48 138.76L219.632 149.087L216.613 150.018L209.504 150.256L207.043 150.986L204.886 152.53L205.08 151.525L205.095 146.248L196.744 137.363L198.061 134.426L207.724 131.139L233.984 128.93L235.065 129.309L235.275 131.917L235.856 132.633L252.539 126.895L255.156 124.522L256.007 125.828L257.268 126.908L259.155 127.007L259.149 129.42L258.202 130.71L258.194 133.18L255.68 134.122L254.466 134.156L251.631 135.41L249.852 135.765L246.269 133.965L242.616 133.368L241.326 133.685L240.081 135.557L240.066 140.833L242.9 142.671L245.697 145.973L245.686 149.537L246.339 151.285L251.682 156.819L252.652 156.324L253.312 154.027L255.381 157.081L259.849 154.879L261.105 150.73L264.698 147.004L265.988 152.973L273.682 151.869L276.192 150.461L276.207 145.185L275.271 140.226L278.512 139.26L280.771 134.187L280.785 128.911L279.549 127.124L279.171 111.268L278.397 110.598L279.942 111.63L284.483 111.8L286.334 110.591L286.349 105.314L285.972 102.008L289.032 103.446L289.027 105.041L295.772 107.114L296.768 107.138L302.73 103.234L314.643 102.576L316.03 102.226L316.019 106.211L316.159 106.842L313.946 105.996L311.163 105.976L311.159 107.251L311.151 109.733L309.018 109.416L308.977 110.521L308.962 115.797L311.087 119.216L318.071 122.012L319.193 122.169L321.207 124.21L316.381 130.064L305.831 139.043L305.82 142.838L305.456 142.517L302.815 142.591L297.998 145.591L297.986 149.912L290.683 151.134L277.203 167.648L277.188 172.925L279.394 179.252L284.735 181.216L302.075 175.857L310.343 175.206L319.407 176.542L327.463 175.81L352.114 180.163L354.335 179.819L354.34 178.148L355.303 179.031L357.368 179.208L361.281 176.624L362.433 172.912L362.837 173.471L365.121 173.911L367.102 172.83L368.025 171.432L368.214 170.352L370.416 170.922L375.528 171.041L376.045 170.55L377.421 169.902L381.744 170.239L383.31 169.851L383.318 167.39L388.597 164.212L390.623 161.698L390.613 165.123L391.814 164.816L399.034 161.257L399.128 159.001L399.13 158.306L399.713 158.291L402.22 156.549L402.229 153.499L405.909 151.96L411.342 151.421L417.353 148.988L421.61 149.008L422.331 147.181L422.332 146.94L422.761 147.007L423.748 147.46L428.166 147.756L428.595 146.645L428.599 145.327L430.242 146.038L434.356 146.71L436.067 146.072L444.943 145.445L445.985 144.101L446 138.825L443.163 134.396L437.879 133.07L435.017 133.738L433.297 132.513L433.301 130.698L432.655 130.642L432.662 128.431L438.776 129.624L440.995 128.925L441.428 127.305L441.443 122.029L439.464 119.499L439.464 119.113L440.942 119.571L442.247 119.019L442.262 113.742L438.472 107.575L434.162 104.473L423.1 100.978L419.176 100.45L417.717 99.8944L416.666 100.785L416.545 101.197L415.854 100.975L414.606 99.3864L411.85 97.771L409.158 97.1782L402.452 96.9228L402.114 98.6855L402.112 99.2522L399.798 99.0024L397.326 99.5887L394.325 105.098L394.372 104.573L394.387 99.296L392.151 96.9135L389.941 97.2304L387.717 100.196L387.001 100.694L385.75 96.5211L384.65 95.9282L382.837 96.8165L382.842 95.1173L382.109 93.7368L374.833 92.1251L375.766 88.2997L375.781 83.0229L372.131 80.7895L372.108 80.784L372.111 79.4193L369.199 75.3012L361.246 70.167L358.126 68.9124L344.929 66.5327L341.623 66.8496L338.442 68.2571L337.302 66.8664L337.252 66.5121L332.631 64.5687L329.939 67.0537L328.232 65.3973L326.045 64.4699L316.083 64.715L315.385 65.4961L315.381 66.8291L314.074 68.3149L313.378 70.4485L312.205 71.6081L312.19 76.8849L312.854 77.3733L310.605 77.4339L310.468 77.6091L310.472 75.9304L310.218 74.7988L309.496 74.7531L310.887 70.5343L310.902 65.2575L309.756 63.8155L307.726 64.5826L302.14 65.264L294.662 68.1723L294.267 68.149L292.697 68.739L289.44 72.5645L289.429 76.1886L287.204 76.6723L287.189 81.9491L288.481 87.4403L288.245 87.6286L282.094 89.3977L275.849 88.1571L269.841 81.9491L267.901 81.9528L266.637 85.6347L266.622 90.9115L266.821 91.1781L264.305 93.2894L264.316 89.2849L263.467 88.6884L263.481 83.4825L261.089 79.4874L257.882 79.5619L255.87 78.2737L255.739 76.9743L254.685 76.2035L253.413 76.5577L251.946 77.7713L251.492 77.6455L250.545 79.1732L250.53 84.45L251.195 87.6099L251.185 90.8835L251.676 92.1177L255.304 93.5699L256.86 93.4469L256.888 93.4394L256.881 95.6784L255.391 94.9131L251.892 94.5142L250.209 95.1424L250.217 92.237L249.048 90.9311L246.071 89.9356L239.579 90.9646L239.113 91.9741L238.468 92.4924L237.384 90.4809L236.032 90.8136L236.047 85.5443L231.691 84.6719H228.2L223.263 87.5083L222.762 83.2643L221.138 82.8514L220.31 81.2388L219.091 80.509L217.923 77.7834L217.929 75.9779L214.872 69.8361L209.319 65.7925L205.832 66.3789L204.602 67.6475L193.896 71.046L192.912 72.1301L192.897 77.4069L192.994 81.1055L194.775 82.2679L200.091 82.5708L200.082 85.4642L199.5 85.2367L197.144 85.5499L197.129 90.8267L197.656 93.9036L195.902 93.0955L195.903 92.5409L189.089 81.2873L187.197 80.6124L187.205 77.6939L185.695 77.6324L183.769 77.9559L182.88 77.4898L182.892 73.0743L179.192 73.6467L177.428 72.2009L169.72 70.8577L167.305 69.2489L162.406 69.2246L160.283 65.0385L159.023 64.2443L140.51 44.5158L123.064 42.3579L119.747 42.8389L110.934 42L109.273 43.5306L108.636 51.6923L106.198 48.9956L97.8009 46.8275L96.1322 47.8025L96.1173 53.0802L96.7168 54.3861L96.7103 56.6456L93.1003 55.8076L88.7245 56.6363L85.7224 58.522L84.5356 61.4265L84.5206 66.7032L84.529 66.7144L84.5188 66.7237L84.5085 70.3385L69.7911 69.9247L68.1607 70.3851L68.1458 75.6619L69.2654 76.5857L72.0761 77.3696L77.6349 80.2881L79.3213 80.3086L81.6521 79.5992L97.9662 79.684L102.532 78.7976L102.528 80.3692L113.489 83.6829L122.144 89.833L122.39 90.1714L121.274 100.2L121.259 105.477L121.523 105.654L117.804 112.043L117.789 117.32L117.883 117.592L95.1537 151.142L95.1387 156.419L95.1481 156.449L94.6774 158.703L94.6625 163.98L96.2462 164.601L97.18 163.902L99.6414 159.692L98.2155 167.083L98.2006 172.36L114.245 195.21L114.233 199.629L116.54 205.275L117.084 205.551L105.139 208.085L96.7355 213.089L91.3064 235.33L89.4482 237.249L46.6062 254.7L46.2056 256.841L41.7075 256.893L36.8696 258.324L35.7098 259.722L34.8349 260.285L32.5835 260.414L22.0149 269.288L22 274.565L26.2058 284.247L29.4712 284.165L32.041 285L34.3699 283.97L34.3848 278.693L34.382 278.686L37.7109 276.374L40.6412 275.352L48.5036 274.84L50.9632 272.886L50.966 271.761L52.2191 270.891L55.6405 271.239L64.8271 270.254L64.8346 267.779L66.423 267.742L67.9721 268.56L84.91 270.384L87.8365 269.747L89.2867 266.573L92.2374 269.103L95.5496 269.958L122.196 267.286L133.312 269.791L140.01 269.777L172.094 261.009L173.192 259.242L173.207 253.966L162.49 240.68L161.68 229.856L155.655 220.886L155.67 215.77L152.267 213.318L147.963 212.347L146.163 210.983L144.417 206.75L143.259 206.157L142.032 206.087L142.033 205.396L141.093 204.82L126.991 201.905L123.887 200.429L122.421 198.638L125.71 197.115L126.043 195.588L126.058 190.311L125.078 189.599L128.816 188.643L130.661 187.498L130.676 182.221L129.391 181.201L116.998 177.57L122.278 173.043L124.481 172.634L134.21 174.857L135.711 175.478L138.885 177.858L144.195 178.553L147.215 180.521L145.896 183.428L145.881 188.705L146.201 190.031L148.54 189.687L162.573 184.468L167.84 183.82L169.823 184.141L175.735 183.749L183.495 180.97L187.911 180.871L192.347 182.225L199.146 180.394L203.35 181.505L206.818 184.679L217.659 186.51L220.969 185.414ZM248.769 105.959L250.798 106.129L251.913 106.503L248.424 108.059L246.77 111.564L246.755 116.67L245.529 117.638L241.744 118.63L241.114 118.673L241.126 114.481L241.107 114.05L243.84 108.304L245.178 107.145L248.769 105.959ZM233.233 98.2166L233.218 103.493L233.754 103.872L230.693 105.601L230.382 104.762L228.056 103.252L226.243 103.423L226.252 100.228L225.728 99.0098L234.001 93.2334L233.233 98.2166ZM215.322 105.442L216.52 105.991L216.161 105.938L215.322 105.442ZM269.221 106.309L268.098 103.807L264.046 102.505L262.029 102.527L262.037 99.5738L262.029 98.3191L261.778 98.1896L263.689 97.2593L263.678 100.777L275.882 108.923L269.221 106.309ZM277.103 96.5844L277.162 96.4092L277.978 96.6683L279.195 97.6331L277.103 96.5844ZM317.427 80.7327L316.364 80.9051L316.358 80.9163V80.9023L313.704 77.995L317.427 80.7327Z" fill="url(#paint2_linear_2016_395)" fill-opacity="0.6"/>
<path d="M453.475 196.723L464.155 193.499L464.144 197.075L465.371 197.808L465.96 198.98L466.988 200L469.209 199.925L473.01 198.543L473.758 195.765L473.765 193.623L475.926 190.415L476.131 189.156L476.138 186.456L478.024 184.09L478.025 184.138L478.126 187.511L480.56 190.764L487.954 193.049L493.947 191.492L494.985 190.083L495 184.788L494.015 182.096L492.527 180.891L492.331 180.484L489.903 179.349L488.951 179.513L487.454 178.693L487.46 176.526L483.683 175.849L479.979 176.66L478.032 178.484L478.031 178.753L477.525 176.253L475.878 175.849L472.612 177.331L472.217 177.425L472.223 175.052L469.698 173.233L463.031 173L457.137 179.469L457.128 182.831L454.774 183.444L454.768 185.269L451.718 186.635L451.015 190.367L451 195.663L451.453 196.792L453.475 196.723Z" fill="url(#paint3_linear_2016_395)" fill-opacity="0.6"/>
<path d="M338.237 182.545L334.421 182L334.02 182.046L332.592 184.053L332.59 184.643L332.074 184.692L328.015 188.772L328 194.185L332.072 197.717L333.123 198.133L347.305 200L349.33 199.678L349.985 196.853L350 191.441L349.507 188.979L348.053 188.272L344.738 187.447L340.783 185.489L338.723 185.673L338.725 185.059L338.237 182.545Z" fill="url(#paint4_linear_2016_395)" fill-opacity="0.6"/>
<path d="M276.52 343.579L273.015 348.107L273 353.402L273.684 354.764L278.968 355L296.904 349.842L300.985 345.295L301 340L278.473 342.764L276.52 343.579Z" fill="url(#paint5_linear_2016_395)" fill-opacity="0.6"/>
<path d="M439.896 386.687L420.606 385L417.018 386.603L415.015 389.162L415 394.374L415.455 395.128L422.646 400.933L425.044 401L432.957 399.3L433.936 399.43L439.469 396.539L441.603 396.242L442.985 394.997L443 389.784L442.474 387.923L439.896 386.687Z" fill="url(#paint6_linear_2016_395)" fill-opacity="0.6"/>
<path d="M669.763 357.273L666.415 356.518L665.818 357.453L665.823 355.903L665.503 354.744L659.723 353.251L653.119 349.147L653.133 344.123L652.359 341.912L644.988 337.675L643.762 334.633L643.776 329.651L634.468 320.758L632.516 320.543L627.452 320.731L624.7 322.098L622.795 320.882L618.392 319.197L615.575 315.102L614.121 315.367L615.438 314.381L615.453 309.091L615.144 305.52L613.179 302.164L611.925 301.364L605.346 302.564L601.724 300.397L600.514 299.212L600.521 297.003L597.362 294.108L595.045 293.021L594.682 292.312L599.016 292.051L606.734 290.031L608.754 285.353L608.769 280.063L604.855 277.336L605.289 277.22L605.304 271.93L604.178 269.794L601.758 268.547L592.366 268.591L590.718 269.089L588.354 269.244L586.771 268.635L582.277 268.683L581.158 266.495L574.377 264.376L568.794 264.496L554.426 261.577L552.467 261.509L550.201 262.079L550.193 265.136L549.522 265.032L539.909 261.734L535.334 262.783L532.401 266.668L529.298 262.021L526.855 261.577L526.866 257.544L526.237 256.628L524.888 256.952L523.792 258.043L521.17 258.614L521.178 255.772L518.719 253.493L516.215 252.905L502.906 255.79L497.068 259.755L496.832 263.052L494.92 263.698L493.913 262.817L489.087 251.63L492.325 247.463L494.676 246.232L513.789 243.58L535.645 245.511L539.582 244.174L539.597 238.885L536.37 236.503L530.92 236.291L519.468 233.041L509.119 232.785L484.645 238.226L480.987 239.9L480.239 243.154L480.224 248.444L480.537 249.483L484.492 253.347L484.768 253.367L484.497 254.748L483.007 255.039L481.477 253.493L474.705 251.491L474.711 249.604L473.652 249.082L461.756 246.406L457.331 246.438L457.346 241.317L455.564 239.941L454.412 239.541L452.038 242.128L446.72 245.227L446.388 244.979L446.761 244.779L446.919 242.568L446.934 237.278L442.167 227.447L441.96 227.029L441.971 223.047L441.327 219.603L439.272 218.062L433.739 215.677L420.203 212.646L415.016 213.138L412.882 212L407.311 212.148L404.873 212.729L401.667 213.022L401.661 215.155L386.88 217.329L380.74 218.06L366.334 217.851L359.43 222.167L358.659 225.749L358.648 229.646L358.079 229.583L351.539 233.312L348.162 233.711L341.494 231.944L336.416 231.859L336.422 229.811L336.963 227.812L340.579 225.098L342.04 224.723L343.127 221.951L346.561 221.305L347.306 220.652L347.321 215.362L346.114 214.842L344.535 214.993L339.365 214.193L336.258 214.313L332.423 215.686L329.882 217.987L327.939 217.361L322.163 216.755L318.248 217.722L313.746 220.19L313.731 225.48L314.917 226.614L317.519 227.436L317.512 229.984L317.344 229.906L314.819 229.714L313.993 235.769L311.921 237.454L308.974 237.673L298.652 232.977L294.383 233.046L286.296 238.469L286.283 242.62L285.582 243.697L245.399 247.891L229.868 258.389L229.769 262.698L229.754 267.988L231.814 271.624L254.415 286.424L257.306 290.589L250.754 293.147L216.042 330.588L215.015 333.565L215 338.855L223.577 343.79L229.345 344.961L262.336 341.967L267.284 340.064L282.62 340.211L286.022 339.103L295.399 331.099L297.329 330.443L341.215 326.53L341.23 321.415L360.967 326.086L367.575 325.918L370.931 325.029L372.291 323.662L372.304 319.135L373.135 318.318L374.225 320.508L382.386 325.829L387.428 333.204L387.677 335.191L382.527 339.741L378.107 348.592L378.092 353.882L379.349 355.127L379.75 355.181L379.739 359.22L382.101 359.938L385.477 358.413L385.944 356.325L387.648 354.34L393.723 351.397L396.68 351.014L420.088 354.567L418.465 357.19L418.45 362.479L419.879 363.865L414.039 366.889L411.858 369.2L411.852 371.219L408.62 375.347L406.546 370.252L403.313 367.798L402.698 368.56L402.367 387.309L401.147 389.431L401.132 394.72L414.368 403L415.55 402.559L415.565 397.269L410.199 393.203L412.438 393.15L412.453 387.861L411.345 386.319L413.776 385.824L416.412 381.685L416.426 376.764L420.855 372.691L423.481 372.981L423.577 373.196L423.481 373.583L423.466 378.873L425.077 380.384L433.604 381.398L436.747 380.4L442.141 372.031L443.641 371.242L445.073 371.497L445.064 374.591L446.763 375.893L454.254 375.233L473.062 378.381L475.673 378.303L487.624 375.927L487.627 375.072L488.344 374.919L490.491 369.701L492.99 368.638L500.668 368.61L500.682 363.393L500.87 363.409L500.864 365.747L503.794 366.747L501.381 369.127L500.974 371.01L500.959 376.299L502.017 376.4V376.438L501.749 376.69L501.734 381.98L501.786 382.957L503.145 383.353L504.536 383.244L511.498 384.139L515.103 385.615L521.46 386.952L529.838 386.723L536.928 384.163L540.855 380.996L546.171 383.548L558.945 384.116L560.165 383.893L560.18 378.604L559.593 378.012L554.336 376.921L557.177 374.577L561.015 375.615L570.574 366.437L570.592 365.5L570.607 360.21L569.305 360.467L566.166 359.906L565.665 358.942L585.947 360.357L597.486 365.045L597.483 366.06L598.074 367.314L602.265 369.217L600.066 369.548L586.725 377.402L584.146 377.914L580.529 378.57L580.514 383.86L581.765 384.174L594.463 384.539L611.034 381.822L614.971 378.435L619.316 377.273L621.86 377.673L627.09 379.987L629.234 380.468L632.507 382.726L641.684 383.075L649.3 384.756L652.339 386.3L655.531 386.7L659.128 382.517L660.228 382.035L665.882 381.867L668.352 381.734L668.897 383.425L670.02 383.978L670.537 385.055L670.531 386.89L671.927 389.802L675.576 390.6L676.81 390.061L679.645 389.757L684.985 389.448L685 384.159L669.763 357.273ZM607.82 367.991L613.692 367.813L616.546 368.444L616.545 368.785L606.19 368.713L607.82 367.991ZM549.632 371.028L549.625 373.571L549.241 372.682L547.264 371.35L546.238 372.255L542.972 373.448L538.402 373.363L537.269 374.331L536.89 375.017L533.638 376.381L517.02 377.047L510.574 374.968L511.974 373.858L512.293 372.7L514.692 371.538L551.931 369.488L549.632 371.028ZM327.811 254.377L327.801 257.991L328.329 260.205L326.681 260.567L322.455 258.95L320.998 258.735L320.983 264.025L321.046 264.818L322.624 267.323L324.548 267.863L330.268 267.836L333.217 265.998L334.517 267.024L334.504 271.538L334.803 275.425L341.715 276.91L342.301 276.193L342.409 275.8L342.396 280.356L345.064 280.992L350.301 284.282L345.978 285.636L343.676 285.301L326.731 272.849L317.213 270.586L314.157 265.594L317.163 264.425L317.647 263.307L317.662 258.018L302.965 251.623L305.897 250.845L312.851 251.088L315.647 250.435L318.4 250.308L327.811 254.377Z" fill="url(#paint7_linear_2016_395)" fill-opacity="0.6"/>
<path d="M274.649 64.4516L277 68.8921L275.996 71.8319L272.376 75.4982L270.319 76L269.024 74.699L269.365 73.7027L267.31 71.5855L266.772 71.4251L266.54 71.1366L266 68.5122L268.179 68.0992L269.575 68.0857L269.57 66.2803L271.83 64L274.649 64.4516Z" fill="#D2D8EA"/>
<path d="M241.792 61.8341L242 63.7197L237.946 65.142L232.951 66L230.896 65.9447L230.672 64.5987L231.012 64.1001L228.288 64.8322L221.52 64.5253L220.983 64.0543L220 62.4156L220.942 61.1468L239.942 61L241.792 61.8341Z" fill="#D2D8EA"/>
<path d="M247.913 71.5303L249 73.2872L246.808 75.034L248.032 79.0089L243.216 81L239.435 80.6205L227.453 76.7474L225.97 75.843L227.906 74.672L231.269 74.9933L230.174 74.0222L227.668 73.2197L224 69.9631L224.614 69.3568L234.526 67L237.868 68.9365L238.096 73.6695L239.655 75.7718L240.678 75.5357L243.32 72.2449L247.913 71.5303Z" fill="#D2D8EA"/>
<path d="M261.718 79.2175L264.151 83.1329L261.998 85.0349L262.202 86.9259L265 88.8197L264.78 91.2826L261.122 93L259.495 92.6291L257.456 90.2768L257.916 89.1476L258.901 88.3218L258.357 87.5005L257.435 87.7271L255.854 87.8477L252.165 86.4244L251.666 85.2148L252.25 84.6402L251 78.9105L251.963 77.4132L252.425 77.5375L253.916 76.3471L255.208 76L256.28 76.7555L256.413 78.028L258.459 79.2915L261.718 79.2175Z" fill="#D2D8EA"/>
<path d="M362.492 90.2199L358.899 89.3856L355.902 89.684L359.237 90.7097L359.941 91.1114L359.159 91.3957L334.372 94.4025L321.986 92.779L322.402 93.3899L322.291 94.6596L320.182 94.7281L319.073 94.5085L318.989 95.2874L319.223 95.8739L317.615 97.0273L314.92 97.7133L303.017 98.3758L297.059 102.306L296.064 102.282L289.324 100.194L290.041 99.8923L290.088 98.9482L283.194 95.6844L278.288 91.7683L277.474 91.5074L277.329 91.9363L274.797 93.1825L274.898 95.5614L275.011 95.7913L286.136 101.41L286.632 105.782L284.783 107L280.245 106.828L264 95.9039L264.196 94.0196L268.811 90.1176L268.321 87.8353L266.938 85.965L268.202 82.2582L270.14 82.2544L276.143 88.5044L282.384 89.7535L288.53 87.9723L289.685 87.0423L292.023 87.9967L292.189 88.2163L294.85 88.7625L295.479 85.3513L296.901 84.7469L293.975 85.2377L289.282 84.6202L287.489 76.9429L291.184 76.133L293.176 76.0645L290.431 75.2781L289.722 72.8072L292.977 68.9559L294.546 68.3618L294.941 68.3862L302.413 65.4583L307.995 64.7723L310.023 64L311.168 65.4518L307.988 75.1683L308.617 74.9384L310.485 75.0585L310.739 76.1978L306.966 79.8286L307.55 81.0645L308.812 80.3607L310.872 77.7115L313.393 77.643L316.624 81.209L316.362 81.7139L316.63 81.2128L320.208 80.6291L323.33 81.6351L329.773 82.2563L329.358 81.7486L327.616 80.9763L323.699 80.1664L312.47 71.8472L313.642 70.6807L314.337 68.5326L316.252 66.3395L315.647 65.6939L316.344 64.9075L326.299 64.6607L328.485 65.5944L330.19 67.262L332.88 64.7601L337.498 66.7168L337.548 67.0734L338.687 68.4735L341.867 67.0565L345.17 66.7374L358.357 69.1332L361.475 70.3964L369.422 75.5653L372.332 79.7113L370.647 80.6553L369.762 80.463L372.353 81.0908L376 83.3393L375.032 87.3342L372.226 90.035L362.492 90.2199ZM303.513 85.264L303.668 85.5727L305.264 84.3922V84.3856L303.513 85.264ZM317.406 66.3667L317.536 66.3189L317.406 66.3536L316.322 66.3395L317.406 66.3667ZM304.554 86.9081L304.884 86.956L304.695 86.7364L304.376 86.6951L304.554 86.9081Z" fill="#D2D8EA"/>
<path d="M446 138.951L444.957 140.292L436.071 140.918L434.357 141.555L430.239 140.885L427.541 139.721L426.578 139.601L426.816 140.119L428.589 141.49L428.158 142.599L423.735 142.304L422.746 141.851L422.031 141.739L422.316 142.024L421.595 143.848L417.333 143.828L411.314 146.257L405.875 146.795L401.099 148.786L401.017 149.953L402.182 151.376L399.671 153.115L398.573 153.142L399.084 153.823L398.991 156.076L391.762 159.628L390.56 159.934L390.703 159.101L393.104 155.731L392.78 154.982L391.514 155.346L388.542 159.025L382.259 162.796L382.388 163.779L383.249 164.654L381.681 165.042L377.353 164.705L375.975 165.352L375.458 165.842L370.339 165.723L368.134 165.154L367.945 166.233L367.021 167.628L365.038 168.706L362.751 168.267L362.346 167.708L361.192 171.415L357.275 173.994L355.208 173.817L353.185 171.969L353.084 170.731L353.751 169.642L353.64 169.002L349.237 170.149L349.134 170.728L353.164 173.403L354.239 174.604L352.016 174.948L327.334 170.602L319.269 171.334L310.194 169.999L301.916 170.65L284.556 176L279.208 174.039L277 167.723L290.495 151.239L302.125 149.299L303.088 148.387L302.235 147.958L300.227 147.665L297.82 145.704L302.643 142.71L305.287 142.636L306.681 143.857L307.639 144.219L308.167 143.654L305.663 139.169L316.225 130.205L322.457 122.668L321.311 119.337L319.055 117.057L317.932 116.901L310.939 114.11L308.812 110.697L308.854 109.594L312.499 110.135L310.995 107.433L311 106.16L313.786 106.181L319.601 108.396L320.541 108.563L320.225 108.041L319.365 107.501L316.506 103.959L315.876 101.127L318.438 99.1805L343.126 99.5276L343.856 99.1191L342.812 98.2417L344.148 94.383L345.91 93.9028L355.908 93.7391L358.92 94.9133L359.644 95.7228L364.798 92.7825L370.504 92.3098L373.247 92L382.029 93.94L382.763 95.3181L379.555 97.9318L379.362 98.3505L380.1 98.3133L384.573 96.1285L385.674 96.7203L386.926 100.886L387.643 100.389L389.87 97.4284L392.082 97.1121L394.321 99.4904L393.711 106.287L397.262 99.7825L399.738 99.1973L403.412 99.5918L408.743 104.962L409.477 105.288L409.367 104.758L403.411 99.5918L402.056 98.8809L402.394 97.1214L409.107 97.3763L411.803 97.9681L414.562 99.5815L415.811 101.167L416.503 101.389L416.625 100.977L417.677 100.089L419.138 100.643L423.066 101.171L434.142 104.659L438.456 107.756L442.251 113.912L440.943 114.463L435.763 112.863L434.86 112.826L435.376 113.299L438.886 115.044L439.452 118.056L438.51 118.465L441.429 122.184L440.996 123.8L438.774 124.498L422.783 121.387L425.485 123.143L425.52 125.205L419.219 125.743L423.745 126.464L427.609 125.903L432.645 126.205L431.992 127.444L420.675 132.467L420.251 132.82L420.99 132.865L431.03 130.643L433.28 130.836L432.74 132.269L434.997 133.873L437.863 133.205L443.153 134.529L446 138.951ZM303.772 146.956L303.811 147.473L304.009 146.976L303.943 146.749L303.925 146.745L303.772 146.956ZM382.787 161.256L382.757 161.042L382.651 161.239L382.787 161.256Z" fill="#D2D8EA"/>
<path d="M496 184.01L494.96 185.431L488.957 187L481.548 184.697L479.109 181.417L479.007 178.017V177.969L479 177.655L480.951 175.817L484.662 175L488.447 175.683L488.069 177.662L489.942 178.692L490.895 178.526L493.327 179.671L493.524 180.081L495.014 181.295L496 184.01ZM481.069 180.3L481.487 180.427V180.413L481.198 180.292L481.069 180.3Z" fill="#D2D8EA"/>
<path d="M473.738 190.708L472.99 193.523L469.193 194.924L466.974 195L465.946 193.967L465.358 192.777L464.133 192.035L468.33 189.591L469.462 188.239L469.603 187.271L467.911 187.257L453.473 191.677L451.453 191.747L451 190.602L451.701 186.82L455.228 185.218L456.226 185.162L454.754 183.584L458.713 182.541L462.046 183.237L462.827 183.254L462.454 182.752L461.301 182.329L458.538 181.837L457.116 179.556L463.005 173L469.664 173.236L472.188 175.081L471.522 177.646L472.577 177.389L475.84 175.888L477.487 176.297L478 178.873L475.487 182.073L476.108 184.008L475.904 185.284L473.237 189.299L473.295 190.307L473.738 190.708ZM457.409 185.542L457.544 185.538L457.402 185.524L456.337 185.202L457.409 185.542ZM472.043 186.98L472.185 186.994V186.988L472.043 186.98Z" fill="#D2D8EA"/>
<path d="M349.507 188.654L350 191L349.344 193.694L347.319 194L333.127 192.22L332.075 191.823L328 188.457L332.062 184.567L332.992 184.484L332.58 183.957L334.009 182.044L334.41 182L338.229 182.52L338.717 184.917L338.384 185.53L340.777 185.327L344.735 187.193L348.051 187.98L349.507 188.654Z" fill="#D2D8EA"/>
<path d="M535.792 236.621L539 238.94L535.087 240.242L513.362 238.362L494.364 240.944L492.027 242.142L488.28 246.868L486.071 248L484.241 247.874L480.31 244.109L480 243.097L480.744 239.929L484.379 238.298L508.707 233L518.993 233.249L530.376 236.414L535.792 236.621Z" fill="#D2D8EA"/>
<path d="M209.474 65.8156L215.032 69.8639L218.088 76.0072L217.956 77.5153L219.253 80.5435L220.473 81.2733L221.303 82.8878L222.928 83.3012L223.43 87.5501L228.37 84.7103H231.864L236.224 85.5838L235.73 86.9323L225.114 94.3458L224.784 96.4893L226.422 100.291L222.956 101.96L221.595 101.319L219.936 102.26L212.635 98.9157L213.153 100.691L212.512 102.274L214.25 104.779L216.322 106.008L220.699 106.639L221.866 106.503L224.83 103.64L228.227 103.319L230.555 104.83L230.867 105.67L241.526 99.6492L234.838 99.2843L233.41 98.2774L234.378 91.9903L235.163 91.1168L237.562 90.5261L238.647 92.54L239.293 92.0211L239.761 91.0105L246.257 89.9802L249.238 90.9769L250.407 92.2843L250.198 92.9525L249.078 94.1302L245.971 96.844L252.085 94.5641L255.586 94.9635L262.233 98.38L262.239 99.6361L252.785 101.513L251.005 100.916L248.974 100.745L245.38 101.933L244.042 103.093L240.146 111.284L241.268 113.605L241.309 114.561L237.584 118.408L237.172 119.708L238.548 118.943L241.929 118.715L245.718 117.722L248.121 115.821L247.867 112.783L246.958 111.639L248.614 108.131L261.006 102.605L264.251 102.571L268.306 103.875L269.43 106.38L277.148 109.407L279.384 111.342L279.763 127.216L281 129.005L278.739 134.084L274.538 135.336L276.418 145.299L273.906 146.708L266.206 147.814L264.914 141.838L261.318 145.569L260.061 149.723L255.588 151.927L253.517 148.87L252.857 151.17L251.886 151.665L246.538 146.125L245.885 144.374L246.281 141.261L243.097 137.5L240.26 135.661L241.506 133.787L242.796 133.47L246.452 134.067L250.04 135.869L251.819 135.513L254.657 134.257L255.873 134.224L261.837 131.988L259.241 131.886L258.396 130.807L260.827 127.5L259.355 125.957L262.412 121.977L257.477 121.718L256.215 120.636L255.363 119.329L252.744 121.705L236.047 127.449L235.465 126.732L235.256 124.121L234.173 123.742L207.89 125.954L198.218 129.244L196.761 132.494L196.777 137.354L205.243 146.364L204.859 148.354L203.041 149.409L202.373 151.18L200.192 152.795L200.121 153.849L200.57 154.938L202.579 154.409L207.193 151.108L209.656 150.378L216.772 150.139L219.793 149.207L232.654 138.869L234.943 139.04L237.757 140.709L239.849 141.391L241.626 142.558L241.594 147.35L242.333 148.504L242.236 150.265L240.383 151.3L238.766 155.47L243.213 156.061L248.074 154.74L249.939 155.644L243.789 169.204L244.604 170.368L240.649 177.662L236.217 179.707L238.019 182.03L236.69 185.034L234.144 186.69L232.015 186.816L225.265 180.843L225.592 178.941L235.925 176.952L214.872 171.272L218.303 172.699L216.471 179.427L219.614 179.13L221.274 179.372L221.149 180.294L217.833 181.396L206.982 179.563L203.512 176.385L199.303 175.273L192.498 177.106L188.059 175.751L183.639 175.85L175.871 178.632L169.954 179.024L167.97 178.704L162.698 179.352L148.652 184.577L146.312 184.922L145.991 183.594L148.637 177.765L147.818 175.72L144.305 173.43L138.99 172.734L135.813 170.351L134.311 169.731L124.573 167.505L122.369 167.915L113.471 175.543L114.464 176.966L129.473 181.366L130.76 182.386L128.913 183.533L121.128 185.522L120.781 186.595L126.137 190.485L125.803 192.015L121.471 194.021L120.041 195.823L123.963 200.615L127.07 202.094L141.185 205.012L142.126 205.588L140.353 206.178L143.352 206.349L144.512 206.943L146.259 211.182L148.061 212.547L152.368 213.52L155.775 215.974L154.798 219.663L161.791 230.077L162.601 240.913L173.329 254.214L172.229 255.982L140.117 264.761L133.413 264.775L122.286 262.265L95.6159 264.942L92.3007 264.085L89.3473 261.552L87.8959 264.73L84.9667 265.368L68.0135 263.543L66.463 262.723L64.8639 262.761L64.604 263.658L64.8667 265.238L55.6718 266.225L52.2473 265.877L50.7426 266.921L50.9893 267.874L48.5275 269.83L40.6589 270.341L37.7251 271.365L34.1277 273.864L33.38 276.27L34.381 278.97L32.05 280L29.4779 279.164L26.2096 279.246L22 269.553L32.5781 260.668L34.8315 260.539L35.7082 259.976L36.869 258.576L41.7113 257.143L46.2134 257.091L46.6143 254.948L89.495 237.476L91.3549 235.555L96.7888 213.288L105.2 208.278L121.349 204.851L122.646 201.394L121.063 201.196L119.282 201.53L116.625 200.182L114.316 194.53L115.373 191.595L98.2702 167.229L101.211 151.983L97.2487 158.761L96.314 159.461L94.7289 158.839L95.8664 153.392L95.2056 151.269L119.178 115.876L117.876 112.124L123.581 102.323L122.89 101.306L121.35 100.268L122.979 85.6258L122.235 84.6049L113.573 78.4485L102.601 75.1309L105.413 73.383L104.226 73.243L98.0356 74.4441L81.7068 74.3591L79.3739 75.0693L77.686 75.0488L72.1222 72.1269L69.3089 71.3421L68.1883 70.4173L69.8202 69.9562L89.8586 70.5199L88.4809 69.0865L84.5611 66.7516L86.2117 65.2734L86.107 63.5189L84.5789 61.4472L85.7658 58.5393L88.7707 56.6524L93.1513 55.8227L101.849 57.8432L103.117 56.7578L102.575 55.8675L96.7795 51.4646L97.0346 49.6589L96.186 47.8092L97.8571 46.8331L106.26 49.0038L108.702 51.7035L109.34 43.5323L111.001 42L119.823 42.839L123.142 42.3584L140.604 44.5187L159.133 64.2702L160.395 65.0653L162.519 69.2563L167.423 69.2806L169.84 70.8913L177.556 72.2361L179.322 73.6826L183.025 73.1096L182.215 77.1131L183.902 77.9968L185.83 77.673L187.341 77.7346L187.151 78.6249L185.071 80.1675L186.222 80.2598L189.226 81.3321L196.046 92.5978L194.322 92.3589L201.73 95.7726L203.842 97.7865L205.928 97.2396L210.541 97.9946L212.103 97.7314L211.258 96.4483L199.266 93.2156L198.386 92.0006L197.287 85.5978L199.646 85.2843L206.803 88.083L201.068 83.0688L200.24 81.6793L202.793 81.376L203.986 81.4786L203.145 80.8916L204.585 77.8708L205.935 77.6562L194.932 77.0281L193.149 75.8644L193.052 72.1605L194.037 71.0752L204.752 67.6727L205.984 66.4026L209.474 65.8156Z" fill="#D2D8EA"/>
<path d="M301 340L296.916 344.685L278.971 350L273.684 349.757L273 348.354L276.507 343.687L278.461 342.848L301 340Z" fill="#D2D8EA"/>
<path d="M559.417 377.46L560 378.034L558.789 378.249L546.109 377.7L540.834 375.224L536.936 378.296L529.897 380.777L521.582 381L515.27 379.704L511.692 378.273L504.781 377.404L503.401 377.51L502.052 377.126L502 376.178L503.327 374.959L503.17 374.137L502.273 373.703L508.998 373.952L517.16 376.524L533.655 375.877L536.885 374.555L537.261 373.889L538.385 372.951L542.922 373.034L546.163 371.878L547.182 371L549.145 372.292L550.645 375.681L559.417 377.46Z" fill="#D2D8EA"/>
<path d="M442.473 387.98L443 389.879L441.619 391.149L439.482 391.451L433.947 394.4L432.967 394.266L425.049 396L422.65 395.931L415.455 390.013L415 389.244L417.004 386.634L420.594 385L439.895 386.72L442.473 387.98Z" fill="#D2D8EA"/>
<path d="M669.766 356.706L685 383.498L679.66 383.805L676.825 384.109L675.59 384.646L671.942 383.85L670.545 380.95L670.785 379.608L670.034 378.049L668.91 377.498L668.365 375.813L665.895 375.946L660.241 376.113L659.141 376.593L655.544 380.761L652.352 380.362L649.313 378.824L641.697 377.149L632.521 376.802L629.248 374.552L627.103 374.072L621.873 371.767L619.329 371.369L614.984 372.526L611.046 375.9L594.475 378.607L581.777 378.243L580.524 377.929L584.141 377.276L586.721 376.765L600.062 368.942L605.653 368.101L623.379 368.224L628.507 366.879L626.201 366.869L623.891 367.06L616.553 366.365L618.427 362.978L613.709 361.94L607.837 362.117L603.648 363.962L598.085 361.447L597.494 360.198L598.127 359.442L585.958 354.516L561.372 352.807L565.106 354.087L564.594 355.224L564.959 357.028L566.162 359.337L569.302 359.895L570.604 359.639L570.586 360.573L561.026 369.716L557.188 368.682L553.19 371.967L550.114 371.153L549.631 370.415L560.516 363.14L514.702 365.653L512.304 366.811L511.986 367.965L508.053 371.071L500.968 370.4L501.375 368.525L506.56 363.432L506.833 361.914L500.873 359.888L503.379 358.86L505.026 358.186L503.662 357.788L496.328 357.185L495.638 359.054L496.564 360.265L500.047 362.046L500.676 362.741L492.999 362.768L490.499 363.826L488.352 369.025L486.769 369.362L487.633 370.029L475.682 372.395L473.071 372.473L454.262 369.338L446.77 369.996L445.071 368.699L446.865 367.694L448.692 367.823L450.294 367.346L449.728 366.437L443.648 365.362L442.148 366.147L436.753 374.485L433.611 375.479L425.084 374.468L423.472 372.963L424.418 369.157L423.487 367.094L420.862 366.805L415.875 371.373L416.418 375.765L413.782 379.887L409.989 380.657L409.858 383.602L412.444 387.187L410.097 387.242L408.14 386.239L404.538 387.566L404.928 388.537L415.557 396.561L414.375 397L401.138 388.752L402.359 386.638L402.689 367.961L403.305 367.202L406.538 369.646L408.612 374.722L412.249 370.096L411.85 368.598L414.03 366.296L420.151 363.14L422.372 360.563L421.257 359.337L418.459 356.634L422.729 349.761L421.817 349.012L396.688 345.212L393.731 345.594L387.656 348.525L385.952 350.503L385.485 352.582L382.109 354.101L379.746 353.387L380.128 352.195L383.073 350.681L382.591 349.744L379.356 349.309L378.1 348.069L382.52 339.251L389.695 332.936L389.254 331.786L387.905 331.193L387.435 327.468L382.393 320.122L374.232 314.821L373.142 312.638L371.066 314.674L372.299 317.963L370.939 319.324L367.582 320.21L360.973 320.377L330.606 313.218L328.412 313.888L330.124 316.306L341.222 320.819L297.332 324.718L295.402 325.371L286.025 333.345L282.623 334.448L267.286 334.302L262.338 336.198L229.345 339.18L223.578 338.013L215 333.097L216.027 330.132L250.741 292.837L259.313 289.503L258.466 287.876L258.477 286.695L254.417 280.87L231.814 266.126L229.754 262.503L229.853 258.21L245.385 247.753L285.57 243.575L287.265 240.981L286.284 238.366L294.372 232.963L298.641 232.895L308.963 237.573L311.91 237.355L313.982 235.677L314.809 229.645L317.333 229.836L319.811 230.97L324.363 231.214L326.023 231.606L330.097 231.616L317.51 226.755L319.353 226.295L320.963 226.196L322.06 225.097L323.557 224.235L328.393 223.204L330.929 223.265L330.257 219.438L324.452 222.043L318.611 222.448L314.919 221.287L313.733 220.157L318.235 217.699L322.151 216.735L327.927 217.338L329.87 217.962L332.412 215.67L336.247 214.302L339.354 214.183L344.524 214.98L346.103 214.83L347.31 215.347L346.564 215.998L343.13 216.642L342.043 219.403L340.582 219.777L336.965 222.48L335.897 226.412L336.411 228.922L335.717 230.185L333.697 230.672L332.798 231.329L334.11 231.744L341.481 231.867L348.149 233.627L351.525 233.23L358.066 229.515L364.096 230.182L360.411 233.328L364.649 233.223L367.385 229.117L366.058 227.96L360.95 227.551L358.645 225.696L359.415 222.128L366.321 217.829L380.727 218.036L386.867 217.309L406.963 214.363L401.655 213.018L404.861 212.726L407.299 212.147L412.871 212L415.004 213.134L420.192 212.643L433.729 215.663L439.262 218.039L441.317 219.574L441.962 223.005L440.192 223.887L441.191 225.446L442.158 227.387L446.924 237.181L446.766 239.383L442.927 241.437L434.506 239.163L431.057 236.085L428.277 241.903L431.805 242.373L433.119 244.154L434.93 244.266L437.978 243.293L442.642 243.112L445.359 244.092L446.709 245.1L452.027 242.012L454.401 239.435L455.553 239.833L457.335 241.204L457.276 244.271L452.768 244.601L453.149 246.334L461.745 246.272L473.642 248.938L474.701 249.46L472.293 250.185L473.204 250.9L481.467 253.334L482.997 254.872L484.488 254.583L485.273 250.596L486.847 249.364L488.645 250.481L493.903 262.621L494.91 263.499L496.822 262.855L497.058 259.57L502.896 255.621L516.206 252.747L518.709 253.333L521.169 255.603L520.79 257.558L517.327 259.263L523.782 257.868L524.879 256.782L526.227 256.459L526.857 257.371L520.183 262.732L521.607 264.38L522.238 262.334L523.743 261.654L526.223 261.276L529.287 261.83L532.39 266.46L535.323 262.59L539.898 261.545L549.511 264.831L551.218 265.092L550.191 261.889L552.458 261.32L554.416 261.388L568.785 264.296L574.368 264.177L581.149 266.288L582.269 268.467L586.763 268.42L588.346 269.026L590.709 268.872L592.358 268.376L601.75 268.331L604.169 269.574L605.296 271.702L603.27 272.24L601.046 275.372L603.616 276.234L608.76 279.805L606.74 284.466L599.022 286.478L588.246 287.125L590.668 287.833L591.703 289.311L593.885 290.471L595.035 292.715L597.353 293.797L600.511 296.681L600.424 298.802L601.715 300.062L605.337 302.219L611.916 301.024L613.17 301.821L615.135 305.165L615.444 308.722L607.587 314.578L609.905 315.736L615.566 314.71L618.384 318.789L622.787 320.468L624.692 321.68L627.443 320.318L632.508 320.131L634.46 320.345L643.768 329.203L643.57 333.711L644.981 337.197L652.352 341.418L653.125 343.62L651.325 345.673L652.093 347.995L659.714 352.714L665.495 354.201L665.814 355.355L663.894 355.655L662.607 356.456L663.925 358.062L665.717 357.044L666.407 355.969L669.766 356.706ZM343.666 285.008L345.968 285.342L355.067 282.502L354.987 281.024L353.441 280.684L345.067 275.444L342.399 274.81L343.883 270.426L344.46 270.181L347.4 267.842L346.04 267.052L342.753 266.682L343.06 267.904L342.303 270.665L341.717 271.38L334.804 269.9L334.505 266.029L339.552 259.615L338.03 256.207L338.101 251.185L337.471 250.28L336.738 251.005L335.784 259.577L336.405 260.858L335.279 262.131L333.218 260.511L330.268 262.342L324.548 262.369L322.624 261.831L321.046 259.336L320.982 258.546L322.44 258.76L326.665 260.37L329.528 259.744L327.8 252.533L328.224 250.477L327.885 248.965L318.399 244.876L315.646 245.003L312.85 245.653L305.895 245.411L301.25 246.641L297.515 246.304L291.044 244.589L289.405 244.657L289.794 245.756L317.646 257.828L317.163 258.941L312.786 260.637L311.824 261.604L317.198 270.349L326.716 272.603L343.666 285.008ZM361 236.651L359.15 236.945L359.901 237.431L360.401 238.174L363.025 240.315L366.308 241.118L370.898 243.597L372.508 243.648L382.767 241.299L383.699 241.279L383.375 241.263L383.845 239.87L387.314 239.172L392.758 240.439L395.698 242.356L400.079 243.405L400.579 242.938L399.246 241.926L389.95 238.239L390.737 234.505L397.874 230.563L411.99 229.429L411.557 228.231L405.981 227.506L386.995 231.782L385.169 233.284L379.128 235.732L366.922 237.897L362.189 237.113L361 236.651ZM330.151 310.973L330.88 310.789L339.827 291.397L338.978 290.256L337.496 290.924L329.442 304.695L329.604 310.529L330.151 310.973ZM372.043 311.694L373.286 311.596L372.146 311.115L371 310.836L368.617 308.583L368.594 303.384L367.195 301.873L364.338 302.475L363.671 310.724L372.043 311.694ZM507.114 268.649L507.728 268.696L507.199 268.263L507.128 266.18L514.39 261.517L514.693 260.883L513.697 261.029L492.086 271.273L493.508 271.534L507.114 268.649ZM581.816 287.206L588.249 287.114L582.285 286.607L581.206 286.76L581.816 287.206ZM386.868 242.681L385.698 241.391L383.952 241.296L384.098 242.981L384.497 243.692L386.868 242.681ZM562.07 354.453L561.929 354.501L562.03 354.572L562.178 354.528L562.07 354.453ZM480.821 255.025L480.893 255.079L480.94 255.024L480.821 255.025Z" fill="#D2D8EA"/>
</g>
<path d="M406 113.933C494.393 88.4862 536.342 234.678 522.359 319" stroke="#272727" stroke-width="0.75" stroke-miterlimit="10" stroke-linecap="round" stroke-dasharray="3 3"/>
<path d="M280 304C318.249 240.4 318.381 204.062 364 258.647" stroke="#272727" stroke-width="0.75" stroke-miterlimit="10" stroke-linecap="round" stroke-dasharray="3 3"/>
<path d="M158 120.271C259 113.282 195.5 243.091 279 305" stroke="#272727" stroke-width="0.75" stroke-miterlimit="10" stroke-linecap="round" stroke-dasharray="3 3"/>
<path d="M405 112.886C364.238 92.3699 345.619 185.443 364.238 259" stroke="#272727" stroke-width="0.75" stroke-miterlimit="10" stroke-linecap="round" stroke-dasharray="3 3"/>
<path d="M158 121C212.611 57.1941 339.868 59.2037 405 113.966" stroke="#272727" stroke-width="0.75" stroke-miterlimit="10" stroke-linecap="round" stroke-dasharray="3 3"/>
<path d="M302.388 268.713C306.233 270.253 310.598 268.383 312.138 264.538C313.677 260.692 311.808 256.327 307.963 254.788C304.117 253.248 299.752 255.117 298.212 258.963C296.673 262.808 298.542 267.173 302.388 268.713Z" fill="#FFC55A"/>
<path d="M306.792 268.945L298 264C298.063 264.346 298.142 264.684 298.239 265.01L305.886 269.311C306.19 269.211 306.492 269.088 306.792 268.945Z" fill="#863A02"/>
<path d="M298 261C297.972 261.218 297.952 261.437 297.941 261.655L309.975 267.949C310.145 267.814 310.31 267.671 310.469 267.521L298 261Z" fill="#863A02"/>
<path d="M298 262C298.013 262.264 298.039 262.526 298.075 262.785L308.883 268.511C309.111 268.392 309.334 268.262 309.553 268.121L298 262Z" fill="#863A02"/>
<path d="M298.787 258.532L312.12 265.407C312.195 265.28 312.269 265.151 312.338 265.018C312.358 264.979 312.375 264.94 312.395 264.901L299.052 258.021L298.787 258.532Z" fill="#863A02"/>
<path d="M312.055 257.902C311.223 256.996 310.121 256.178 308.801 255.549C307.482 254.919 306.113 254.56 304.819 254.451L312.055 257.902Z" fill="#863A02"/>
<path d="M302.756 254.61L312.469 259.945C312.416 259.622 312.347 259.306 312.263 258.997L303.608 254.243C303.321 254.348 303.036 254.47 302.756 254.61Z" fill="#863A02"/>
<path d="M299 266C299.615 266.806 300.41 267.492 301.366 267.988C302.323 268.484 303.341 268.738 304.352 268.774L299 266Z" fill="#863A02"/>
<path d="M301.39 255.156C301.181 255.28 300.976 255.415 300.776 255.559L312.325 261.688C312.325 261.438 312.314 261.189 312.292 260.942L301.39 255.156Z" fill="#863A02"/>
<path d="M298 259C297.939 259.19 297.886 259.381 297.841 259.573L311.016 266.365C311.148 266.218 311.273 266.064 311.393 265.905L298 259Z" fill="#863A02"/>
<path d="M299.112 257.045C299.036 257.137 298.964 257.232 298.892 257.328L298.788 257.529L312.182 264.432C312.25 264.247 312.312 264.062 312.365 263.875L299.112 257.045Z" fill="#863A02"/>
<path d="M300.245 256.098C300.087 256.236 299.934 256.383 299.786 256.535L312.254 263.06C312.291 262.85 312.32 262.639 312.34 262.428L300.245 256.098Z" fill="#863A02"/>
<path d="M309.719 265.04C311.79 261.453 310.565 256.858 306.984 254.777C303.402 252.696 298.82 253.917 296.749 257.504C294.679 261.092 295.903 265.687 299.485 267.768C303.066 269.849 307.648 268.628 309.719 265.04Z" fill="#FF9B30"/>
<path d="M308.322 264.801C310.632 262.053 310.458 258.084 307.935 255.937C305.411 253.789 301.492 254.276 299.183 257.024C296.873 259.772 297.046 263.741 299.57 265.888C302.093 268.036 306.012 267.549 308.322 264.801Z" fill="#FFC55A"/>
<path d="M298.424 258.773C299.999 255.68 303.545 254.339 306.471 255.67C306.377 255.614 306.282 255.56 306.184 255.509C303.206 253.944 299.471 255.269 297.842 258.468C296.213 261.666 297.307 265.527 300.286 267.092C300.384 267.143 300.482 267.191 300.581 267.236C297.821 265.58 296.848 261.867 298.424 258.773Z" fill="#863A02"/>
<path d="M306.056 261.91C305.838 261.427 305.472 261.004 304.962 260.641L305.303 259.963C305.499 260.091 305.657 260.23 305.775 260.381C305.934 260.584 306.088 260.849 306.237 261.175L307.766 260.238C307.656 259.834 307.428 259.428 307.08 259.02C306.801 258.693 306.501 258.427 306.18 258.222L306.543 257.5L305.926 257.171L305.554 257.909C305.254 257.8 304.943 257.744 304.623 257.742C304.163 257.74 303.743 257.843 303.364 258.051C302.985 258.26 302.699 258.555 302.506 258.938C302.263 259.421 302.252 259.91 302.473 260.403C302.676 260.855 303.062 261.299 303.627 261.737L303.261 262.463C303.11 262.353 302.951 262.209 302.784 262.03C302.538 261.766 302.371 261.506 302.282 261.251L300.544 262.136C300.623 262.584 300.829 263.02 301.164 263.445C301.478 263.844 301.851 264.165 302.282 264.408L301.898 265.172L302.515 265.5L302.922 264.692C303.213 264.786 303.506 264.834 303.801 264.834C304.284 264.834 304.719 264.722 305.106 264.497C305.493 264.273 305.787 263.962 305.987 263.565C306.274 262.995 306.297 262.444 306.056 261.91ZM304.262 260.131C304.187 260.047 304.175 259.954 304.226 259.853C304.307 259.693 304.453 259.634 304.666 259.674L304.381 260.239C304.329 260.197 304.288 260.161 304.262 260.131ZM303.973 262.715C303.955 262.717 303.935 262.716 303.916 262.716L304.198 262.158C304.234 262.187 304.263 262.213 304.281 262.233C304.343 262.301 304.348 262.385 304.297 262.487C304.23 262.619 304.122 262.695 303.973 262.715Z" fill="#863A02"/>
<path d="M305.056 261.91C304.838 261.427 304.472 261.004 303.962 260.641L304.303 259.963C304.499 260.091 304.657 260.23 304.775 260.381C304.934 260.584 305.088 260.849 305.237 261.175L306.766 260.239C306.656 259.834 306.428 259.428 306.08 259.021C305.801 258.693 305.501 258.427 305.18 258.222L305.543 257.5L304.926 257.171L304.554 257.909C304.254 257.801 303.943 257.744 303.623 257.742C303.163 257.739 302.743 257.843 302.364 258.051C301.985 258.26 301.699 258.555 301.506 258.937C301.263 259.421 301.252 259.91 301.474 260.403C301.676 260.855 302.062 261.299 302.627 261.737L302.261 262.463C302.11 262.353 301.951 262.209 301.784 262.03C301.538 261.766 301.371 261.506 301.282 261.251L299.544 262.136C299.623 262.584 299.829 263.02 300.164 263.445C300.478 263.844 300.851 264.165 301.282 264.408L300.898 265.172L301.515 265.5L301.922 264.692C302.213 264.786 302.506 264.834 302.801 264.834C303.284 264.834 303.719 264.722 304.106 264.497C304.493 264.273 304.787 263.962 304.987 263.564C305.274 262.995 305.297 262.444 305.056 261.91ZM303.262 260.132C303.187 260.047 303.175 259.955 303.226 259.853C303.307 259.693 303.453 259.634 303.666 259.674L303.381 260.239C303.329 260.198 303.288 260.161 303.262 260.132ZM302.973 262.715C302.955 262.718 302.935 262.716 302.917 262.717L303.198 262.158C303.234 262.188 303.263 262.213 303.281 262.234C303.343 262.301 303.348 262.386 303.297 262.487C303.23 262.62 303.122 262.696 302.973 262.715Z" fill="#FF9B30"/>
<path d="M386.983 103.535C386.973 99.3924 390.323 96.0268 394.465 96.0173C398.607 96.0078 401.973 99.3579 401.983 103.5C401.992 107.642 398.642 111.008 394.5 111.017C390.358 111.027 386.992 107.677 386.983 103.535Z" fill="#FFC55A"/>
<path d="M388.653 99.0031L390 109C389.701 108.814 389.416 108.615 389.149 108.404L387.978 99.7098C388.184 99.4643 388.41 99.2288 388.653 99.0031Z" fill="#863A02"/>
<path d="M393 111C392.786 110.946 392.576 110.883 392.37 110.813L390.968 97.3047C391.156 97.1968 391.349 97.0963 391.548 97.0033L393 111Z" fill="#863A02"/>
<path d="M391 110C390.759 109.89 390.525 109.77 390.298 109.64L388.971 97.4812C389.166 97.3136 389.369 97.1542 389.581 97.0032L391 110Z" fill="#863A02"/>
<path d="M394.427 111.001L392.965 96.0718C393.111 96.0484 393.258 96.0279 393.407 96.0131C393.451 96.0088 393.494 96.0069 393.537 96.0033L395 110.944L394.427 111.001Z" fill="#863A02"/>
<path d="M400.981 99.0023C401.515 100.11 401.868 101.437 401.965 102.896C402.062 104.354 401.891 105.759 401.513 107.001L400.981 99.0023Z" fill="#863A02"/>
<path d="M400.343 109.002L398.974 98.0046C399.255 98.173 399.523 98.3541 399.779 98.546L400.998 108.345C400.795 108.573 400.577 108.793 400.343 109.002Z" fill="#863A02"/>
<path d="M388 107C387.478 106.131 387.134 105.139 387.027 104.067C386.919 102.994 387.06 101.955 387.4 101.001L388 107Z" fill="#863A02"/>
<path d="M398.999 109.58C398.806 109.728 398.605 109.869 398.397 110.001L396.97 97.0046C397.202 97.0978 397.43 97.2002 397.651 97.3117L398.999 109.58Z" fill="#863A02"/>
<path d="M394 111C393.801 110.986 393.604 110.966 393.409 110.936L391.966 96.183C392.151 96.1157 392.341 96.0564 392.533 96.0033L394 111Z" fill="#863A02"/>
<path d="M396.999 110.88C396.886 110.916 396.771 110.948 396.655 110.979L396.43 111.001L394.965 96.0046C395.162 96.0097 395.357 96.0203 395.55 96.0409L396.999 110.88Z" fill="#863A02"/>
<path d="M397.999 109.736C397.812 109.832 397.62 109.92 397.424 110.001L395.968 96.0046C396.177 96.0482 396.384 96.0987 396.587 96.158L397.999 109.736Z" fill="#863A02"/>
<path d="M393.212 97.0801C397.31 96.4816 401.128 99.3178 401.738 103.415C402.348 107.512 399.52 111.318 395.421 111.916C391.323 112.515 387.505 109.679 386.895 105.582C386.285 101.485 389.113 97.6785 393.212 97.0801Z" fill="#FF9B30"/>
<path d="M393.32 98.5863C396.727 97.4554 400.351 99.083 401.414 102.222C402.477 105.36 400.576 108.821 397.169 109.952C393.762 111.083 390.138 109.456 389.076 106.317C388.013 103.178 389.913 99.7172 393.32 98.5863Z" fill="#FFC55A"/>
<path d="M395.053 110.331C398.51 110.01 401.065 107.211 400.91 104C400.928 104.108 400.943 104.217 400.954 104.326C401.307 107.672 398.696 110.653 395.122 110.985C391.548 111.316 388.365 108.873 388.012 105.527C388 105.417 387.992 105.308 387.987 105.199C388.505 108.376 391.596 110.652 395.053 110.331Z" fill="#863A02"/>
<path d="M395.27 102.693C394.762 102.85 394.295 103.161 393.868 103.622L393.237 103.202C393.389 103.023 393.547 102.884 393.712 102.786C393.935 102.653 394.218 102.533 394.562 102.425L393.823 100.8C393.406 100.859 392.973 101.036 392.523 101.33C392.162 101.567 391.859 101.832 391.614 102.124L390.941 101.678L390.536 102.248L391.224 102.705C391.078 102.989 390.982 103.289 390.94 103.606C390.879 104.061 390.929 104.488 391.088 104.888C391.248 105.289 391.506 105.607 391.862 105.844C392.313 106.143 392.798 106.213 393.317 106.054C393.792 105.909 394.284 105.581 394.791 105.075L395.468 105.524C395.339 105.661 395.176 105.801 394.976 105.944C394.682 106.155 394.402 106.289 394.137 106.346L394.798 108.172C395.254 108.148 395.715 107.997 396.18 107.717C396.617 107.455 396.983 107.125 397.28 106.728L397.992 107.201L398.397 106.63L397.644 106.13C397.775 105.853 397.859 105.569 397.896 105.278C397.957 104.8 397.901 104.356 397.726 103.946C397.552 103.536 397.28 103.208 396.909 102.962C396.379 102.609 395.832 102.519 395.27 102.693ZM393.273 104.252C393.179 104.316 393.086 104.317 392.991 104.254C392.842 104.155 392.801 104.003 392.868 103.797L393.395 104.147C393.347 104.194 393.306 104.23 393.273 104.252ZM395.808 104.85C395.809 104.869 395.805 104.888 395.803 104.907L395.282 104.561C395.316 104.529 395.346 104.504 395.368 104.488C395.443 104.435 395.528 104.44 395.622 104.503C395.746 104.585 395.808 104.701 395.808 104.85Z" fill="#863A02"/>
<path d="M395.271 102.693C394.762 102.85 394.295 103.161 393.869 103.622L393.237 103.203C393.389 103.023 393.547 102.884 393.712 102.786C393.935 102.653 394.218 102.533 394.562 102.426L393.823 100.8C393.406 100.859 392.973 101.036 392.523 101.33C392.162 101.567 391.859 101.832 391.614 102.124L390.941 101.678L390.536 102.248L391.224 102.705C391.078 102.989 390.982 103.289 390.94 103.606C390.879 104.061 390.928 104.488 391.088 104.888C391.248 105.289 391.506 105.607 391.862 105.844C392.313 106.143 392.798 106.213 393.317 106.054C393.792 105.908 394.284 105.58 394.791 105.075L395.467 105.524C395.339 105.661 395.176 105.801 394.976 105.944C394.682 106.155 394.402 106.289 394.137 106.346L394.798 108.172C395.254 108.148 395.714 107.997 396.18 107.717C396.617 107.455 396.983 107.125 397.28 106.728L397.992 107.201L398.397 106.63L397.644 106.13C397.775 105.853 397.859 105.569 397.896 105.278C397.957 104.8 397.901 104.356 397.726 103.946C397.552 103.536 397.28 103.208 396.909 102.961C396.379 102.609 395.833 102.52 395.271 102.693ZM393.273 104.252C393.18 104.316 393.086 104.317 392.991 104.254C392.842 104.155 392.802 104.003 392.868 103.797L393.395 104.148C393.347 104.194 393.306 104.23 393.273 104.252ZM395.809 104.85C395.809 104.869 395.805 104.888 395.803 104.907L395.282 104.561C395.317 104.528 395.346 104.504 395.368 104.488C395.443 104.435 395.528 104.44 395.623 104.502C395.746 104.585 395.808 104.701 395.809 104.85Z" fill="#FF9B30"/>
<path d="M521.5 240C530.06 240 537 233.06 537 224.5C537 215.94 530.06 209 521.5 209C512.94 209 506 215.94 506 224.5C506 233.06 512.94 240 521.5 240Z" fill="#FFC55A"/>
<path d="M531 236.985L510 235C510.393 235.447 510.81 235.874 511.255 236.273L529.519 238C530.034 237.691 530.527 237.351 531 236.985Z" fill="#863A02"/>
<path d="M506 229C506.114 229.427 506.243 229.847 506.391 230.26L534.378 233C534.601 232.624 534.808 232.237 535 231.84L506 229Z" fill="#863A02"/>
<path d="M508 232C508.221 232.481 508.463 232.948 508.724 233.402L533.047 236C533.381 235.61 533.699 235.202 534 234.777L508 232Z" fill="#863A02"/>
<path d="M506 224.146L536.861 227C536.909 226.708 536.951 226.414 536.98 226.116C536.989 226.029 536.993 225.943 537 225.856L506.116 223L506 224.146Z" fill="#863A02"/>
<path d="M531 212C528.782 210.406 526.127 209.356 523.209 209.075C520.291 208.794 517.483 209.318 515 210.459L531 212Z" fill="#863A02"/>
<path d="M511 212.985L534 215C533.647 214.58 533.267 214.178 532.864 213.795L512.369 212C511.893 212.305 511.435 212.634 511 212.985Z" fill="#863A02"/>
<path d="M514 238C515.886 239.04 518.037 239.723 520.361 239.932C522.684 240.142 524.936 239.857 527 239.173L514 238Z" fill="#863A02"/>
<path d="M509.872 214C509.565 214.386 509.274 214.788 509 215.205L536 218C535.805 217.535 535.592 217.081 535.359 216.639L509.872 214Z" fill="#863A02"/>
<path d="M506 226C506.028 226.398 506.071 226.792 506.13 227.182L535.643 230C535.777 229.629 535.895 229.25 536 228.864L506 226Z" fill="#863A02"/>
<path d="M506.248 220C506.175 220.227 506.108 220.457 506.046 220.689L506 221.14L537 224C536.989 223.607 536.966 223.216 536.922 222.83L506.248 220Z" fill="#863A02"/>
<path d="M507.548 217C507.35 217.374 507.168 217.759 507 218.152L536 221C535.909 220.582 535.803 220.168 535.679 219.763L507.548 217Z" fill="#863A02"/>
<path d="M534.876 227.153C536.094 218.68 530.214 210.804 521.744 209.563C513.274 208.321 505.421 214.184 504.204 222.658C502.987 231.131 508.866 239.006 517.336 240.248C525.806 241.489 533.659 235.627 534.876 227.153Z" fill="#FF9B30"/>
<path d="M531.712 228.935C533.959 222.116 530.262 214.733 523.457 212.446C516.651 210.159 509.313 213.833 507.067 220.653C504.821 227.472 508.517 234.854 515.323 237.141C522.128 239.428 529.466 235.754 531.712 228.935Z" fill="#FFC55A"/>
<path d="M508.463 223.891C509.133 216.976 515.119 211.852 522 212.148C521.769 212.113 521.536 212.084 521.301 212.061C514.129 211.37 507.754 216.606 507.061 223.756C506.369 230.906 511.621 237.261 518.792 237.952C519.027 237.974 519.262 237.99 519.495 238C512.684 236.978 507.792 230.806 508.463 223.891Z" fill="#863A02"/>
<path d="M524.907 223.701C524.079 222.966 523.003 222.453 521.683 222.158L521.823 220.647C522.322 220.737 522.751 220.879 523.11 221.071C523.593 221.33 524.116 221.708 524.678 222.203L527 219.327C526.454 218.657 525.667 218.073 524.64 217.575C523.814 217.175 522.996 216.905 522.185 216.761L522.334 215.151L520.828 215L520.675 216.646C519.983 216.668 519.313 216.793 518.667 217.028C517.739 217.366 516.979 217.869 516.384 218.538C515.789 219.208 515.452 219.969 515.373 220.821C515.272 221.9 515.644 222.815 516.487 223.567C517.257 224.255 518.391 224.793 519.88 225.186L519.73 226.806C519.337 226.715 518.901 226.566 518.421 226.357C517.714 226.049 517.168 225.691 516.784 225.284L514 228.218C514.52 228.991 515.287 229.648 516.302 230.188C517.255 230.696 518.264 231.014 519.327 231.146L519.168 232.849L520.675 233L520.842 231.198C521.504 231.156 522.131 231.026 522.725 230.807C523.697 230.448 524.481 229.916 525.079 229.212C525.677 228.508 526.018 227.712 526.1 226.825C526.219 225.555 525.821 224.513 524.907 223.701ZM519.866 221.733C519.647 221.632 519.548 221.469 519.569 221.242C519.602 220.885 519.849 220.666 520.309 220.583L520.192 221.844C520.053 221.806 519.943 221.769 519.866 221.733ZM521.365 226.744C521.33 226.762 521.29 226.774 521.252 226.789L521.368 225.542C521.465 225.571 521.543 225.598 521.596 225.621C521.775 225.701 521.854 225.854 521.833 226.08C521.805 226.376 521.649 226.597 521.365 226.744Z" fill="#863A02"/>
<path d="M523.907 223.701C523.079 222.966 522.003 222.453 520.683 222.159L520.823 220.647C521.322 220.738 521.751 220.878 522.11 221.071C522.593 221.33 523.116 221.708 523.678 222.203L526 219.327C525.454 218.657 524.667 218.074 523.64 217.575C522.814 217.175 521.996 216.905 521.185 216.761L521.334 215.151L519.828 215L519.675 216.646C518.983 216.668 518.313 216.793 517.667 217.028C516.739 217.366 515.979 217.869 515.384 218.538C514.789 219.207 514.452 219.968 514.373 220.82C514.272 221.899 514.644 222.815 515.487 223.567C516.258 224.255 517.392 224.793 518.881 225.185L518.73 226.805C518.337 226.714 517.901 226.566 517.421 226.356C516.714 226.048 516.168 225.691 515.784 225.283L513 228.218C513.52 228.991 514.287 229.647 515.302 230.188C516.255 230.696 517.264 231.014 518.327 231.145L518.168 232.849L519.675 233L519.842 231.198C520.504 231.155 521.131 231.025 521.725 230.807C522.697 230.447 523.481 229.916 524.079 229.212C524.677 228.508 525.018 227.712 525.1 226.824C525.219 225.555 524.821 224.514 523.907 223.701ZM518.866 221.733C518.647 221.632 518.548 221.469 518.569 221.243C518.602 220.886 518.849 220.666 519.309 220.583L519.192 221.845C519.053 221.806 518.943 221.769 518.866 221.733ZM520.366 226.745C520.331 226.763 520.29 226.775 520.253 226.79L520.369 225.543C520.466 225.571 520.543 225.598 520.597 225.622C520.775 225.701 520.854 225.854 520.833 226.08C520.805 226.376 520.649 226.598 520.366 226.745Z" fill="#FF9B30"/>
<defs>
<linearGradient id="paint0_linear_2016_395" x1="266" y1="73" x2="277" y2="73" gradientUnits="userSpaceOnUse">
<stop offset="1.4e-07" stop-color="#004E96"/>
<stop offset="1" stop-color="#003D85"/>
</linearGradient>
<linearGradient id="paint1_linear_2016_395" x1="220" y1="73.5002" x2="249" y2="73.5002" gradientUnits="userSpaceOnUse">
<stop offset="1.4e-07" stop-color="#004E96"/>
<stop offset="1" stop-color="#003D85"/>
</linearGradient>
<linearGradient id="paint2_linear_2016_395" x1="21.9992" y1="163.505" x2="445.995" y2="163.505" gradientUnits="userSpaceOnUse">
<stop offset="1.4e-07" stop-color="#004E96"/>
<stop offset="1" stop-color="#003D85"/>
</linearGradient>
<linearGradient id="paint3_linear_2016_395" x1="451" y1="186.5" x2="495" y2="186.5" gradientUnits="userSpaceOnUse">
<stop offset="1.4e-07" stop-color="#004E96"/>
<stop offset="1" stop-color="#003D85"/>
</linearGradient>
<linearGradient id="paint4_linear_2016_395" x1="328" y1="191" x2="350" y2="191" gradientUnits="userSpaceOnUse">
<stop offset="1.4e-07" stop-color="#004E96"/>
<stop offset="1" stop-color="#003D85"/>
</linearGradient>
<linearGradient id="paint5_linear_2016_395" x1="273" y1="347.5" x2="301" y2="347.5" gradientUnits="userSpaceOnUse">
<stop offset="1.4e-07" stop-color="#004E96"/>
<stop offset="1" stop-color="#003D85"/>
</linearGradient>
<linearGradient id="paint6_linear_2016_395" x1="415" y1="393" x2="443" y2="393" gradientUnits="userSpaceOnUse">
<stop offset="1.4e-07" stop-color="#004E96"/>
<stop offset="1" stop-color="#003D85"/>
</linearGradient>
<linearGradient id="paint7_linear_2016_395" x1="215" y1="307.501" x2="684.997" y2="307.501" gradientUnits="userSpaceOnUse">
<stop offset="1.4e-07" stop-color="#004E96"/>
<stop offset="1" stop-color="#003D85"/>
</linearGradient>
</defs>
</svg>
